<?xml version="1.0" encoding="UTF-8" standalone="no"?>
<!DOCTYPE svg PUBLIC "-//W3C//DTD SVG 1.1//EN" "http://www.w3.org/Graphics/SVG/1.1/DTD/svg11.dtd">
<svg xmlns="http://www.w3.org/2000/svg" version="1.1" viewBox="0.00 0.00 1196.00 332.00">
<g stroke-width="2.00" fill="none" stroke-linecap="butt">
<path stroke="#e38080" vector-effect="non-scaling-stroke" d="
  M 315.89 25.95
  A 1.14 1.14 0.0 0 0 314.75 24.81
  L 21.59 24.81
  A 1.14 1.14 0.0 0 0 20.45 25.95
  L 20.45 300.45
  A 1.14 1.14 0.0 0 0 21.59 301.59
  L 314.75 301.59
  A 1.14 1.14 0.0 0 0 315.89 300.45
  L 315.89 25.95"
/>
<path stroke="#808080" vector-effect="non-scaling-stroke" d="
  M 1105.90 161.18
  C 1081.20 146.21 1073.66 114.44 1085.48 89.39
  Q 1092.39 74.73 1107.21 66.45
  Q 1115.84 61.63 1126.52 61.20
  Q 1148.29 60.32 1163.42 76.39
  Q 1163.84 76.83 1164.24 76.39
  Q 1167.62 72.73 1170.16 68.46
  A 2.22 2.22 0.0 0 0 1169.60 65.56
  C 1165.53 62.44 1161.59 59.09 1157.17 56.68
  C 1141.98 48.41 1125.77 46.58 1109.62 52.33
  C 1076.69 64.05 1062.52 98.74 1070.15 131.62
  Q 1075.46 154.51 1093.75 168.19
  C 1111.92 181.76 1135.57 183.31 1155.36 172.69
  Q 1163.52 168.32 1170.09 161.98
  A 1.95 1.95 0.0 0 0 1170.21 159.31
  L 1164.38 152.51
  A 0.88 0.88 0.0 0 0 1162.99 152.58
  C 1160.92 155.65 1157.85 157.57 1154.81 159.58
  C 1139.79 169.50 1121.44 170.60 1105.90 161.18"
/>
<path stroke="#808080" vector-effect="non-scaling-stroke" d="
  M 389.76 50.84
  A 1.51 1.51 0.0 0 0 388.25 49.33
  L 379.67 49.33
  A 1.51 1.51 0.0 0 0 378.16 50.84
  L 378.16 177.42
  A 1.51 1.51 0.0 0 0 379.67 178.93
  L 388.25 178.93
  A 1.51 1.51 0.0 0 0 389.76 177.42
  L 389.76 50.84"
/>
<path stroke="#808080" vector-effect="non-scaling-stroke" d="
  M 431.51 71.22
  Q 439.00 83.04 447.52 95.90
  Q 474.80 137.05 502.29 178.11
  Q 502.89 179.00 503.96 179.01
  L 514.41 179.06
  A 1.06 0.96 90.0 0 0 515.37 178.00
  L 515.37 50.11
  A 0.76 0.76 0.0 0 0 514.61 49.35
  L 505.26 49.26
  Q 503.99 49.25 503.99 50.52
  Q 503.90 108.03 504.07 156.85
  Q 504.07 157.29 503.89 157.67
  A 0.48 0.48 0.0 0 1 503.05 157.72
  Q 490.26 137.61 476.73 117.66
  Q 471.27 109.60 465.62 101.00
  Q 448.64 75.12 431.92 50.24
  A 1.92 1.91 73.0 0 0 430.33 49.39
  L 419.89 49.33
  A 1.03 1.03 0.0 0 0 418.85 50.36
  L 418.88 177.70
  A 1.32 1.32 0.0 0 0 420.20 179.02
  L 429.37 179.03
  A 1.15 1.15 0.0 0 0 430.52 177.88
  L 430.52 71.51
  Q 430.52 69.65 431.51 71.22"
/>
<path stroke="#808080" vector-effect="non-scaling-stroke" d="
  M 584.54 165.38
  Q 584.11 164.80 584.04 163.93
  Q 583.97 163.02 583.69 162.21
  C 574.54 135.93 565.08 109.44 556.39 84.45
  Q 553.84 77.14 550.90 69.11
  C 548.61 62.86 546.50 56.61 544.05 50.44
  A 1.83 1.81 -10.5 0 0 542.37 49.30
  L 532.44 49.28
  A 0.66 0.65 -2.4 0 0 531.78 49.99
  Q 531.97 52.33 532.93 54.75
  C 539.42 71.05 547.49 94.58 555.16 115.15
  Q 562.54 134.91 569.41 154.34
  C 571.79 161.05 575.39 169.84 578.01 177.92
  A 1.58 1.57 81.2 0 0 579.49 179.01
  L 590.02 179.09
  A 1.65 1.64 -75.7 0 0 591.49 178.21
  Q 592.27 176.70 592.87 175.06
  Q 615.45 113.25 638.66 50.53
  A 0.93 0.93 0.0 0 0 637.77 49.27
  L 627.93 49.41
  A 1.78 1.77 9.2 0 0 626.28 50.59
  L 585.46 165.25
  Q 585.13 166.18 584.54 165.38"
/>
<path stroke="#808080" vector-effect="non-scaling-stroke" d="
  M 667.27 61.54
  L 732.29 61.52
  A 1.19 1.19 0.0 0 0 733.48 60.34
  L 733.50 51.14
  A 1.61 1.61 0.0 0 0 731.89 49.52
  L 655.80 49.46
  A 0.99 0.99 0.0 0 0 654.81 50.45
  L 654.85 177.51
  A 1.42 1.42 0.0 0 0 656.27 178.93
  L 734.66 178.89
  A 0.84 0.84 0.0 0 0 735.50 178.05
  L 735.49 168.72
  A 1.27 1.26 89.5 0 0 734.22 167.46
  Q 703.78 167.62 672.02 167.30
  Q 669.84 167.28 667.33 167.23
  A 0.73 0.73 0.0 0 1 666.61 166.50
  L 666.51 119.74
  A 0.75 0.75 0.0 0 1 667.26 118.99
  L 725.17 119.13
  Q 726.10 119.13 726.15 118.21
  Q 726.37 113.46 726.14 108.99
  A 1.34 1.33 -1.6 0 0 724.80 107.73
  L 667.30 107.78
  A 0.73 0.72 90.0 0 1 666.58 107.05
  L 666.58 62.23
  Q 666.58 61.54 667.27 61.54"
/>
<path stroke="#808080" vector-effect="non-scaling-stroke" d="
  M 769.46 70.57
  A 0.11 0.11 0.0 0 1 769.62 70.59
  L 840.78 177.65
  A 3.17 3.16 73.2 0 0 843.42 179.07
  L 853.27 179.07
  Q 854.37 179.07 854.37 177.96
  Q 854.40 120.11 854.33 58.30
  Q 854.32 54.73 854.20 50.81
  Q 854.16 49.49 852.85 49.40
  Q 847.92 49.07 843.52 49.61
  A 0.66 0.65 88.5 0 0 842.94 50.23
  Q 842.76 53.47 842.76 57.06
  Q 842.74 106.10 842.91 146.65
  Q 842.93 151.28 843.29 157.56
  A 0.41 0.41 0.0 0 1 842.85 158.00
  Q 842.30 157.96 842.00 157.50
  Q 806.18 103.24 770.59 49.91
  A 1.62 1.60 70.5 0 0 769.12 49.20
  Q 764.02 49.66 758.85 49.21
  A 1.25 1.24 2.3 0 0 757.50 50.45
  Q 757.57 115.51 757.55 176.68
  Q 757.55 177.61 757.79 178.44
  Q 757.95 178.99 758.52 178.99
  L 768.40 179.07
  A 1.02 1.02 0.0 0 0 769.43 178.05
  Q 769.46 122.93 769.28 71.03
  Q 769.28 70.76 769.46 70.57"
/>
<path stroke="#808080" vector-effect="non-scaling-stroke" d="
  M 876.26 60.53
  A 1.07 1.07 0.0 0 0 877.33 61.61
  L 914.02 61.51
  A 1.07 1.07 0.0 0 1 915.09 62.58
  L 915.10 178.00
  A 1.07 1.07 0.0 0 0 916.18 179.07
  L 925.68 179.03
  A 1.07 1.07 0.0 0 0 926.74 177.96
  L 926.72 62.57
  A 1.07 1.07 0.0 0 1 927.80 61.49
  L 964.65 61.66
  A 1.07 1.07 0.0 0 0 965.73 60.58
  L 965.63 50.49
  A 1.07 1.07 0.0 0 0 964.56 49.43
  L 877.43 49.53
  A 1.07 1.07 0.0 0 0 876.36 50.59
  L 876.26 60.53"
/>
<path stroke="#808080" vector-effect="non-scaling-stroke" d="
  M 1032.73 115.30
  A 1.63 1.63 0.0 0 0 1031.10 113.67
  L 995.74 113.67
  A 1.63 1.63 0.0 0 0 994.11 115.30
  L 994.11 120.52
  A 1.63 1.63 0.0 0 0 995.74 122.15
  L 1031.10 122.15
  A 1.63 1.63 0.0 0 0 1032.73 120.52
  L 1032.73 115.30"
/>
<path stroke="#d48281" vector-effect="non-scaling-stroke" d="
  M 706.78 222.03
  Q 705.73 220.60 706.99 219.35
  Q 708.80 217.54 710.13 215.64
  C 713.48 210.87 706.98 202.95 701.80 205.91
  C 698.65 207.70 695.91 211.32 697.64 215.03
  Q 698.46 216.78 699.56 218.36
  A 1.27 1.27 0.0 0 1 699.24 220.14
  C 692.70 224.64 691.30 231.39 697.77 236.95
  C 702.13 240.69 706.58 238.37 709.98 234.94
  A 0.81 0.80 47.1 0 1 711.18 234.99
  L 713.53 237.76
  A 1.92 1.92 0.0 0 0 716.78 237.23
  C 717.81 234.64 715.16 233.01 713.75 231.43
  A 1.92 1.91 -47.5 0 1 713.65 229.02
  Q 715.14 227.02 715.39 224.44
  A 1.58 1.57 1.4 0 0 713.75 222.72
  Q 712.23 222.78 711.01 224.77
  Q 709.99 226.42 708.84 224.85
  L 706.78 222.03"
/>
<path stroke="#d48281" vector-effect="non-scaling-stroke" d="
  M 771.02 227.95
  C 769.23 222.10 769.50 213.61 775.74 210.44
  C 781.08 207.72 784.15 212.35 786.92 215.79
  A 1.55 1.55 0.0 0 0 789.64 215.16
  C 790.28 212.39 788.24 210.02 786.38 208.27
  Q 781.64 203.82 775.67 205.73
  C 764.86 209.18 763.70 223.13 767.79 231.47
  C 771.94 239.90 781.91 241.61 787.87 234.10
  C 789.33 232.27 790.87 229.77 789.85 227.39
  A 1.75 1.75 0.0 0 0 786.68 227.28
  C 785.07 230.45 783.44 233.90 779.48 234.34
  C 775.25 234.80 772.16 231.68 771.02 227.95"
/>
<path stroke="#d48281" vector-effect="non-scaling-stroke" d="
  M 378.48 209.87
  A 0.96 0.96 0.0 0 0 379.49 210.82
  L 386.15 210.46
  A 0.96 0.96 0.0 0 1 387.16 211.42
  L 387.26 237.16
  A 0.96 0.96 0.0 0 0 388.23 238.12
  L 390.49 238.08
  A 0.96 0.96 0.0 0 0 391.43 237.12
  L 391.54 211.31
  A 0.96 0.96 0.0 0 1 392.52 210.35
  L 399.49 210.50
  A 0.96 0.96 0.0 0 0 400.46 209.49
  L 400.33 206.93
  A 0.96 0.96 0.0 0 0 399.37 206.03
  L 379.40 205.92
  A 0.96 0.96 0.0 0 0 378.44 206.90
  L 378.48 209.87"
/>
<path stroke="#e38080" vector-effect="non-scaling-stroke" d="
  M 970.75 206.35
  L 970.59 238.01
  A 0.25 0.25 0.0 0 0 970.84 238.26
  L 971.80 238.27
  A 7.98 1.99 -89.7 0 0 973.83 230.30
  L 973.91 214.10
  A 7.98 1.99 -89.7 0 0 971.96 206.11
  L 971.00 206.10
  A 0.25 0.25 0.0 0 0 970.75 206.35"
/>
<path stroke="#e38080" vector-effect="non-scaling-stroke" d="
  M 496.1759 207.1973
  A 1.05 1.05 0.0 0 0 495.1077 206.1658
  L 494.5878 206.1749
  A 1.05 1.05 0.0 0 0 493.5563 207.2431
  L 493.6041 209.9827
  A 1.05 1.05 0.0 0 0 494.6723 211.0142
  L 495.1922 211.0051
  A 1.05 1.05 0.0 0 0 496.2237 209.9369
  L 496.1759 207.1973"
/>
<path stroke="#e38080" vector-effect="non-scaling-stroke" d="
  M 561.7002 211.5835
  A 2.79 1.25 93.9 0 0 563.1371 208.8850
  A 2.79 1.25 93.9 0 0 562.0798 206.0165
  A 2.79 1.25 93.9 0 0 560.6429 208.7150
  A 2.79 1.25 93.9 0 0 561.7002 211.5835"
/>
<path stroke="#d48281" vector-effect="non-scaling-stroke" d="
  M 1002.26 231.53
  Q 1001.98 227.38 1001.99 221.28
  C 1001.99 219.54 1003.43 218.72 1004.63 217.80
  A 1.52 1.52 0.0 0 0 1004.47 215.29
  C 1001.69 213.68 1002.04 210.70 1001.73 207.90
  Q 1001.66 207.32 1001.08 207.29
  Q 999.12 207.19 998.56 209.05
  Q 997.60 212.26 996.39 215.52
  C 995.52 217.85 997.78 219.44 997.76 221.93
  Q 997.73 226.46 997.80 231.26
  C 997.87 235.45 999.49 239.59 1004.46 238.47
  A 1.78 1.78 0.0 0 0 1005.72 236.08
  Q 1005.22 234.81 1004.02 234.20
  A 3.23 3.22 -78.5 0 1 1002.26 231.53"
/>
<path stroke="#d48281" vector-effect="non-scaling-stroke" d="
  M 639.63 237.07
  C 639.85 240.46 637.24 243.52 633.85 243.59
  Q 633.18 243.60 632.66 243.16
  C 630.95 241.75 629.75 239.90 627.47 239.35
  A 1.06 1.06 0.0 0 0 626.16 240.35
  Q 626.03 244.07 629.85 246.41
  C 634.04 248.98 639.28 247.21 641.98 243.38
  Q 643.46 241.27 643.56 237.76
  Q 643.90 225.13 643.59 215.47
  A 0.89 0.89 0.0 0 0 642.31 214.70
  Q 639.14 216.26 636.56 214.58
  C 632.15 211.70 627.02 217.68 625.98 221.27
  Q 623.19 230.82 630.11 236.80
  C 633.27 239.53 635.65 237.82 638.77 236.53
  Q 639.58 236.20 639.63 237.07"
/>
<path stroke="#d48281" vector-effect="non-scaling-stroke" d="
  M 821.4135 238.8099
  A 12.46 9.95 89.8 0 0 831.3199 226.3153
  A 12.46 9.95 89.8 0 0 821.3265 213.8901
  A 12.46 9.95 89.8 0 0 811.4201 226.3847
  A 12.46 9.95 89.8 0 0 821.4135 238.8099"
/>
<path stroke="#d48281" vector-effect="non-scaling-stroke" d="
  M 895.94 220.20
  C 896.99 217.21 900.18 217.23 902.11 219.18
  Q 903.53 220.62 905.06 221.49
  Q 907.02 222.60 907.24 220.36
  Q 907.42 218.43 905.48 216.40
  Q 904.71 215.60 903.74 215.05
  Q 897.68 211.62 892.86 217.31
  Q 889.81 220.91 892.80 224.28
  C 895.82 227.69 897.92 227.88 901.77 228.98
  C 904.83 229.85 904.99 233.14 901.91 234.31
  C 897.67 235.91 896.60 232.87 894.10 230.50
  A 1.69 1.69 0.0 0 0 891.26 231.48
  C 890.91 233.90 893.54 236.52 895.45 237.71
  C 904.03 243.02 915.00 229.57 903.54 224.97
  Q 900.50 223.75 897.28 222.80
  A 2.02 2.02 0.0 0 1 895.94 220.20"
/>
<path stroke="#d48281" vector-effect="non-scaling-stroke" d="
  M 1037.38 223.58
  C 1032.72 224.87 1029.21 223.78 1025.99 228.43
  C 1024.65 230.36 1024.71 233.10 1026.00 235.00
  Q 1030.43 241.56 1037.25 237.12
  A 2.61 2.61 0.0 0 1 1040.01 237.06
  L 1042.43 238.50
  A 0.90 0.90 0.0 0 0 1043.78 237.62
  Q 1042.78 229.79 1043.23 221.69
  C 1043.81 211.24 1026.61 211.56 1025.93 221.16
  A 0.92 0.91 13.0 0 0 1026.51 222.08
  C 1029.44 223.21 1031.15 218.31 1034.18 218.00
  Q 1037.38 217.68 1038.74 220.65
  A 2.12 2.12 0.0 0 1 1037.38 223.58"
/>
<path stroke="#d48281" vector-effect="non-scaling-stroke" d="
  M 1070.26 226.00
  C 1070.23 222.34 1071.09 218.25 1075.70 218.55
  C 1078.00 218.70 1079.08 220.94 1079.08 222.95
  Q 1079.08 229.36 1078.94 236.35
  Q 1078.91 237.90 1080.45 238.08
  L 1081.46 238.20
  Q 1083.32 238.41 1083.29 236.54
  Q 1083.17 230.37 1083.31 223.50
  C 1083.39 219.45 1082.21 216.01 1078.41 214.35
  C 1075.84 213.23 1073.93 214.39 1071.67 215.40
  C 1070.09 216.11 1068.69 215.41 1067.35 214.63
  A 0.75 0.74 -74.6 0 0 1066.23 215.27
  L 1066.13 236.44
  Q 1066.12 238.26 1067.94 238.24
  L 1068.50 238.23
  Q 1070.25 238.20 1070.27 236.46
  Q 1070.32 231.26 1070.26 226.00"
/>
<path stroke="#d48281" vector-effect="non-scaling-stroke" d="
  M 1109.91 222.16
  C 1110.76 219.58 1114.01 216.70 1116.62 219.12
  Q 1118.33 220.71 1119.99 222.41
  A 1.40 1.40 0.0 0 0 1122.33 221.86
  Q 1122.80 220.35 1122.07 218.90
  C 1119.77 214.37 1114.51 212.14 1110.00 215.39
  C 1105.51 218.62 1104.39 223.83 1105.15 229.06
  C 1106.17 236.08 1113.45 242.71 1120.04 236.36
  C 1121.56 234.91 1123.16 232.59 1123.00 230.73
  A 1.98 1.98 0.0 0 0 1119.28 229.99
  C 1118.31 231.84 1116.44 235.46 1113.72 234.55
  C 1108.88 232.93 1108.58 226.18 1109.91 222.16"
/>
<path stroke="#d48281" vector-effect="non-scaling-stroke" d="
  M 464.50 223.65
  C 459.80 224.43 455.18 224.10 452.38 228.73
  C 451.31 230.50 451.33 232.88 452.38 234.64
  Q 456.63 241.73 464.28 236.87
  A 2.05 2.05 0.0 0 1 466.66 237.01
  Q 467.86 237.97 469.35 238.47
  A 0.78 0.77 -84.9 0 0 470.36 237.62
  Q 469.43 230.95 469.77 223.05
  C 469.94 218.99 468.76 215.58 464.63 214.38
  C 460.24 213.11 453.20 215.02 452.51 220.46
  A 1.65 1.64 74.2 0 0 455.17 221.95
  C 457.31 220.23 459.22 217.15 462.48 218.14
  Q 466.19 219.27 465.26 222.95
  Q 465.11 223.54 464.50 223.65"
/>
<path stroke="#d48281" vector-effect="non-scaling-stroke" d="
  M 528.32 218.45
  C 531.11 218.15 532.57 219.49 532.72 222.31
  Q 533.13 230.07 532.73 236.47
  Q 532.64 237.89 534.06 237.96
  L 535.48 238.02
  Q 536.85 238.08 536.90 236.70
  Q 537.18 228.85 536.91 221.87
  C 536.76 217.92 533.27 212.83 528.67 214.29
  Q 526.74 214.90 524.84 215.61
  C 523.61 216.07 522.45 215.37 521.36 214.85
  A 0.99 0.99 0.0 0 0 519.94 215.74
  L 519.76 236.48
  Q 519.75 237.96 521.23 237.98
  L 522.77 238.01
  A 1.37 1.36 -89.2 0 0 524.15 236.66
  Q 524.24 230.31 524.25 223.63
  Q 524.26 218.89 528.32 218.45"
/>
<path stroke="#d48281" vector-effect="non-scaling-stroke" d="
  M 596.29 218.44
  C 598.57 218.60 599.62 220.89 599.67 222.86
  Q 599.81 228.48 599.51 236.05
  A 2.10 2.09 -90.0 0 0 601.68 238.23
  Q 601.87 238.23 602.06 238.23
  Q 603.75 238.27 603.75 236.57
  Q 603.73 230.31 603.81 222.47
  C 603.85 218.65 601.91 215.15 598.15 214.19
  C 594.29 213.21 591.78 217.47 587.86 214.72
  A 0.69 0.69 0.0 0 0 586.77 215.29
  L 586.72 236.55
  Q 586.71 238.14 588.30 238.12
  L 589.42 238.11
  Q 590.75 238.10 590.77 236.78
  Q 590.87 231.31 590.74 225.69
  C 590.66 222.10 591.74 218.13 596.29 218.44"
/>
<path stroke="#d48281" vector-effect="non-scaling-stroke" d="
  M 859.49 218.91
  C 863.22 217.44 865.65 219.54 865.68 223.26
  Q 865.73 229.39 865.68 236.32
  Q 865.67 238.22 867.57 238.24
  L 868.07 238.24
  A 1.60 1.60 0.0 0 0 869.69 236.67
  Q 869.86 229.16 869.73 222.09
  Q 869.63 216.42 864.68 214.30
  C 862.56 213.39 859.89 214.74 857.87 215.48
  C 856.41 216.02 854.99 215.24 853.69 214.64
  A 0.46 0.45 -76.8 0 0 853.04 215.05
  L 852.81 236.23
  Q 852.79 238.17 854.73 238.16
  Q 855.02 238.16 855.31 238.16
  Q 856.88 238.13 856.87 236.56
  Q 856.83 230.70 856.83 225.17
  C 856.83 223.24 857.37 219.75 859.49 218.91"
/>
<path stroke="#d48281" vector-effect="non-scaling-stroke" d="
  M 425.87 225.16
  C 425.89 220.65 427.03 218.78 431.86 218.97
  A 0.78 0.78 0.0 0 0 432.65 218.34
  Q 432.90 217.02 432.68 215.86
  A 2.30 2.29 70.9 0 0 429.38 214.25
  Q 425.67 216.14 422.60 214.94
  A 0.61 0.61 0.0 0 0 421.77 215.51
  L 421.92 236.27
  Q 421.94 238.25 423.92 238.27
  Q 424.08 238.27 424.24 238.27
  Q 425.76 238.27 425.78 236.75
  Q 425.85 231.04 425.87 225.16"
/>
<path stroke="#d48281" vector-effect="non-scaling-stroke" d="
  M 1151.16 230.10
  Q 1150.94 229.85 1150.85 229.52
  Q 1149.02 222.92 1146.97 216.67
  A 3.36 3.35 -5.4 0 0 1144.21 214.39
  Q 1144.05 214.36 1143.87 214.38
  Q 1141.83 214.57 1142.46 216.52
  Q 1145.45 225.79 1148.61 234.28
  C 1150.14 238.41 1149.12 242.80 1143.96 242.86
  Q 1143.33 242.87 1143.40 243.50
  Q 1143.61 245.31 1144.44 246.86
  A 1.05 1.04 -4.9 0 0 1145.06 247.38
  C 1149.03 248.67 1151.91 243.13 1152.82 240.19
  Q 1156.43 228.58 1160.95 216.41
  A 1.52 1.52 0.0 0 0 1159.81 214.38
  C 1156.96 213.82 1155.61 218.00 1155.05 220.05
  Q 1153.77 224.66 1152.36 229.83
  Q 1152.01 231.10 1151.16 230.10"
/>
<path stroke="#e38080" vector-effect="non-scaling-stroke" d="
  M 563.2757 215.9330
  A 1.03 1.03 0.0 0 0 562.2404 214.9084
  L 561.5804 214.9119
  A 1.03 1.03 0.0 0 0 560.5558 215.9473
  L 560.6643 236.6670
  A 1.03 1.03 0.0 0 0 561.6996 237.6916
  L 562.3596 237.6881
  A 1.03 1.03 0.0 0 0 563.3842 236.6527
  L 563.2757 215.9330"
/>
<path stroke="#d48281" vector-effect="non-scaling-stroke" d="
  M 943.02 226.69
  C 943.08 230.49 942.25 234.51 937.69 234.47
  C 935.32 234.45 934.26 232.01 934.26 229.97
  Q 934.26 223.24 934.31 216.58
  Q 934.32 214.75 932.50 214.75
  L 931.78 214.74
  Q 930.04 214.73 930.01 216.48
  Q 929.87 223.91 930.10 230.42
  Q 930.27 235.37 934.11 237.88
  C 936.72 239.58 939.05 238.68 941.44 237.24
  C 942.87 236.37 944.28 237.13 945.43 238.06
  Q 945.95 238.47 946.54 238.20
  A 0.67 0.65 -13.0 0 0 946.92 237.61
  L 947.01 216.66
  Q 947.01 214.75 945.09 214.76
  L 944.24 214.76
  A 1.38 1.38 0.0 0 0 942.87 216.15
  Q 942.93 221.21 943.02 226.69"
/>
<path stroke="#d48281" vector-effect="non-scaling-stroke" d="
  M 496.7437 216.3598
  A 1.30 1.30 0.0 0 0 495.4505 215.0530
  L 494.3505 215.0473
  A 1.30 1.30 0.0 0 0 493.0437 216.3405
  L 492.9363 236.8602
  A 1.30 1.30 0.0 0 0 494.2295 238.1670
  L 495.3295 238.1727
  A 1.30 1.30 0.0 0 0 496.6363 236.8795
  L 496.7437 216.3598"
/>
<path stroke="#e38080" vector-effect="non-scaling-stroke" d="
  M 492.42 267.42
  L 490.67 267.33
  A 0.52 0.52 0.0 0 0 490.12 267.82
  L 490.10 268.28
  A 2.88 0.93 -87.2 0 0 490.89 271.20
  L 491.83 271.25
  A 2.88 0.93 -87.2 0 0 492.89 268.42
  L 492.92 267.96
  A 0.52 0.52 0.0 0 0 492.42 267.42"
/>
<path stroke="#e38080" vector-effect="non-scaling-stroke" d="
  M 613.39 273.79
  Q 612.99 271.49 613.05 269.46
  Q 613.09 268.06 611.80 268.62
  Q 611.63 268.69 611.48 268.76
  A 2.85 2.83 -8.5 0 0 609.87 270.92
  Q 609.43 273.92 607.72 276.03
  A 0.57 0.57 0.0 0 0 607.81 276.84
  C 608.90 277.69 609.68 278.89 609.71 280.30
  Q 609.80 284.44 609.70 288.91
  C 609.62 292.30 610.95 294.79 614.85 294.44
  Q 615.33 294.40 615.59 294.00
  Q 616.09 293.27 615.75 292.40
  C 615.13 290.78 612.97 291.05 612.99 288.75
  Q 613.04 284.80 613.05 280.57
  Q 613.05 278.38 615.19 277.40
  Q 615.70 277.17 615.77 276.62
  Q 616.00 274.96 614.24 274.64
  A 1.05 1.03 89.5 0 1 613.39 273.79"
/>
<path stroke="#e38080" vector-effect="non-scaling-stroke" d="
  M 558.61 285.15
  Q 564.61 285.43 570.10 285.00
  A 1.43 1.43 0.0 0 0 571.42 283.50
  Q 571.12 277.40 566.22 274.87
  C 561.16 272.25 555.52 276.38 554.59 281.51
  Q 553.20 289.17 558.55 293.07
  C 561.88 295.49 566.45 294.62 569.26 291.92
  Q 570.66 290.58 570.67 288.95
  A 0.82 0.82 0.0 0 0 569.49 288.20
  C 567.30 289.29 565.48 291.44 562.95 291.29
  Q 558.63 291.02 557.80 286.06
  Q 557.64 285.11 558.61 285.15"
/>
<path stroke="#e38080" vector-effect="non-scaling-stroke" d="
  M 420.12 280.61
  Q 421.52 286.56 422.86 292.43
  C 423.20 293.91 424.86 294.41 426.14 293.87
  A 2.06 2.04 86.8 0 0 427.32 292.53
  L 431.89 275.88
  Q 432.29 274.41 430.77 274.50
  L 430.39 274.52
  Q 428.63 274.62 428.24 276.34
  Q 427.09 281.46 425.76 286.37
  Q 425.52 287.23 425.03 288.00
  A 0.35 0.35 0.0 0 1 424.39 287.89
  Q 422.94 281.86 421.89 276.57
  Q 421.39 274.03 418.80 274.74
  Q 417.77 275.02 417.62 276.08
  Q 416.77 281.94 415.22 287.10
  Q 414.36 289.97 413.74 287.04
  Q 412.77 282.49 411.54 277.20
  Q 410.99 274.85 409.03 274.37
  Q 408.74 274.29 408.46 274.42
  Q 407.48 274.86 407.72 275.90
  Q 409.14 282.22 411.63 290.20
  Q 412.14 291.81 412.76 293.24
  A 1.16 1.16 0.0 0 0 413.44 293.88
  C 414.74 294.35 416.58 293.98 416.79 292.35
  Q 417.56 286.49 419.65 280.58
  Q 419.93 279.80 420.12 280.61"
/>
<path stroke="#e38080" vector-effect="non-scaling-stroke" d="
  M 511.71 277.45
  C 513.94 277.43 515.55 279.09 515.55 281.00
  Q 515.54 286.92 515.58 292.65
  A 1.38 1.37 17.1 0 0 516.19 293.79
  Q 517.02 294.34 517.86 294.02
  Q 518.97 293.60 518.93 292.42
  Q 518.78 287.50 518.97 282.20
  C 519.13 277.70 516.83 272.57 511.22 274.64
  C 509.11 275.42 507.97 276.48 505.87 274.67
  Q 505.50 274.35 505.02 274.51
  Q 504.50 274.68 504.50 275.23
  L 504.55 292.78
  Q 504.56 293.76 505.53 293.75
  L 506.80 293.75
  Q 507.85 293.74 507.82 292.68
  C 507.70 288.37 506.49 277.50 511.71 277.45"
/>
<path stroke="#e38080" vector-effect="non-scaling-stroke" d="
  M 538.13 288.73
  Q 537.75 289.87 537.40 288.72
  L 533.55 275.97
  A 1.97 1.95 6.2 0 0 532.60 274.80
  Q 531.64 274.29 530.83 274.48
  A 1.38 1.38 0.0 0 0 529.85 276.26
  Q 532.59 284.39 535.48 292.19
  C 536.74 295.57 539.88 294.33 540.81 291.52
  Q 543.33 283.86 545.53 276.00
  Q 545.93 274.59 544.48 274.31
  Q 544.15 274.24 543.84 274.38
  Q 542.11 275.15 541.57 277.19
  Q 539.91 283.43 538.13 288.73"
/>
<path stroke="#e38080" vector-effect="non-scaling-stroke" d="
  M 590.50 277.38
  C 593.35 277.85 594.09 280.01 594.06 282.51
  Q 593.99 287.92 594.03 292.71
  Q 594.04 294.03 595.36 293.97
  L 595.75 293.96
  Q 597.30 293.89 597.27 292.34
  Q 597.17 287.36 597.34 281.62
  C 597.50 275.92 593.78 272.28 588.04 275.37
  Q 587.53 275.64 586.98 275.50
  L 583.64 274.65
  A 0.61 0.61 0.0 0 0 582.88 275.24
  L 582.82 292.37
  Q 582.82 293.92 584.37 293.96
  L 585.25 293.98
  A 1.38 1.37 -1.0 0 0 586.66 292.53
  C 586.45 289.05 584.93 276.47 590.50 277.38"
/>
<path stroke="#e38080" vector-effect="non-scaling-stroke" d="
  M 647.01 287.06
  C 646.26 283.40 646.48 280.20 649.78 277.93
  C 652.46 276.09 655.13 279.46 656.89 281.18
  A 0.92 0.91 27.6 0 0 658.43 280.70
  Q 658.74 279.15 657.95 277.78
  C 655.79 274.04 651.03 273.13 647.43 275.42
  C 643.11 278.17 642.24 285.16 644.36 289.45
  C 647.01 294.79 652.95 296.12 657.38 291.66
  Q 659.05 289.98 658.77 287.63
  A 1.15 1.15 0.0 0 0 656.73 287.03
  Q 655.84 288.12 655.12 289.39
  C 653.82 291.68 650.49 291.88 648.70 290.20
  Q 647.40 288.98 647.01 287.06"
/>
<path stroke="#e38080" vector-effect="non-scaling-stroke" d="
  M 689.18 288.18
  Q 687.07 282.51 690.66 278.55
  C 693.48 275.43 696.53 279.18 698.47 281.01
  A 1.12 1.12 0.0 0 0 700.36 280.12
  Q 700.14 276.59 696.90 275.04
  Q 692.07 272.74 687.86 276.52
  C 684.76 279.31 684.34 285.75 686.08 289.30
  C 687.58 292.37 690.93 295.16 694.56 294.35
  C 697.40 293.71 700.61 291.16 700.74 287.97
  A 1.27 1.27 0.0 0 0 698.59 286.99
  Q 697.39 288.14 696.68 289.62
  A 2.49 2.48 1.9 0 1 695.35 290.86
  Q 690.84 292.64 689.18 288.18"
/>
<path stroke="#e38080" vector-effect="non-scaling-stroke" d="
  M 718.5219 294.4490
  A 10.16 8.46 89.2 0 0 726.8392 284.1719
  A 10.16 8.46 89.2 0 0 718.2381 274.1310
  A 10.16 8.46 89.2 0 0 709.9208 284.4081
  A 10.16 8.46 89.2 0 0 718.5219 294.4490"
/>
<path stroke="#e38080" vector-effect="non-scaling-stroke" d="
  M 742.10 276.29
  Q 741.81 276.79 741.45 276.35
  Q 740.41 275.07 738.68 274.61
  A 1.10 1.10 0.0 0 0 737.29 275.66
  L 737.09 292.33
  Q 737.08 293.83 738.57 293.99
  L 739.00 294.03
  Q 740.67 294.21 740.63 292.53
  Q 740.47 287.24 740.64 282.04
  Q 740.73 279.40 743.47 277.74
  C 746.07 276.18 747.98 278.21 748.13 280.84
  Q 748.44 286.29 748.18 292.86
  A 0.84 0.84 0.0 0 0 749.02 293.74
  L 750.91 293.75
  Q 751.67 293.76 751.64 292.99
  Q 751.40 286.92 751.62 281.56
  Q 751.72 279.05 754.35 277.83
  Q 754.61 277.71 754.88 277.62
  A 3.18 3.17 78.7 0 1 759.07 280.42
  Q 759.45 286.53 758.91 292.45
  Q 758.77 294.02 760.34 293.95
  L 761.27 293.91
  Q 762.60 293.86 762.63 292.53
  Q 762.76 287.16 762.77 282.19
  C 762.77 277.73 761.10 273.64 756.02 274.23
  C 754.14 274.45 753.11 275.74 751.80 276.91
  A 0.96 0.95 45.7 0 1 750.51 276.89
  C 749.46 275.90 748.55 274.43 746.99 274.25
  Q 743.49 273.86 742.10 276.29"
/>
<path stroke="#e38080" vector-effect="non-scaling-stroke" d="
  M 387.89 280.80
  L 390.64 292.52
  A 2.11 2.11 0.0 0 0 394.36 293.34
  Q 395.08 292.41 395.42 291.17
  Q 397.54 283.37 399.62 275.93
  Q 400.05 274.38 398.44 274.47
  L 397.79 274.51
  Q 396.18 274.61 395.92 276.20
  Q 394.97 282.05 393.19 287.28
  Q 392.98 287.88 392.54 288.33
  A 0.31 0.30 -28.4 0 1 392.02 288.18
  Q 390.83 282.56 389.66 276.66
  Q 389.11 273.85 386.28 274.85
  A 1.29 1.28 -5.7 0 0 385.43 275.88
  Q 384.55 281.98 382.46 288.27
  Q 382.09 289.38 381.84 288.24
  Q 380.50 282.20 379.07 276.56
  A 2.94 2.92 -0.1 0 0 376.92 274.43
  Q 376.39 274.30 375.83 274.61
  A 1.05 1.04 68.3 0 0 375.33 275.77
  Q 377.18 283.18 379.84 291.63
  C 380.27 292.98 381.09 294.49 382.82 294.04
  Q 384.46 293.61 384.65 291.96
  Q 385.31 286.03 387.49 280.77
  Q 387.74 280.16 387.89 280.80"
/>
<path stroke="#e38080" vector-effect="non-scaling-stroke" d="
  M 447.79 287.83
  C 445.82 284.38 445.11 280.01 444.32 276.16
  Q 444.01 274.66 442.48 274.54
  L 441.87 274.49
  Q 439.98 274.34 440.52 276.15
  L 445.39 292.74
  A 1.97 1.95 -8.9 0 0 447.34 294.15
  Q 449.28 294.09 449.70 292.23
  Q 450.85 287.00 452.18 281.37
  A 0.37 0.37 0.0 0 1 452.70 281.12
  Q 453.01 281.27 453.10 281.61
  Q 454.61 287.02 455.78 292.30
  Q 456.19 294.15 457.99 294.19
  A 2.24 2.24 0.0 0 0 460.20 292.56
  L 464.94 275.89
  A 1.06 1.06 0.0 0 0 463.83 274.54
  L 463.23 274.59
  Q 461.42 274.76 461.07 276.55
  Q 459.98 282.13 458.22 287.11
  Q 457.60 288.88 457.13 287.06
  Q 456.02 282.85 455.28 278.13
  Q 455.01 276.46 454.08 275.11
  A 1.63 1.62 50.5 0 0 451.60 274.87
  Q 450.57 275.88 450.34 277.43
  Q 449.53 282.86 448.47 287.73
  Q 448.26 288.67 447.79 287.83"
/>
<path stroke="#e38080" vector-effect="non-scaling-stroke" d="
  M 492.49 275.09
  L 490.61 275.09
  A 0.57 0.57 0.0 0 0 490.04 275.67
  L 490.04 275.85
  A 17.93 0.68 89.8 0 0 490.78 293.77
  L 492.44 293.77
  A 17.93 0.68 89.8 0 0 493.06 275.83
  L 493.06 275.65
  A 0.57 0.57 0.0 0 0 492.49 275.09"
/>
<path stroke="#e38080" vector-effect="non-scaling-stroke" d="
  M 634.2826 283.8250
  A 1.19 1.19 0.0 0 0 633.0988 282.6288
  L 625.9389 282.5913
  A 1.19 1.19 0.0 0 0 624.7427 283.7750
  L 624.7374 284.7750
  A 1.19 1.19 0.0 0 0 625.9212 285.9712
  L 633.0811 286.0087
  A 1.19 1.19 0.0 0 0 634.2773 284.8250
  L 634.2826 283.8250"
/>
<path stroke="#e38080" vector-effect="non-scaling-stroke" d="
  M 474.3241 293.7672
  A 1.81 1.68 125.3 0 0 476.7411 293.2608
  A 1.81 1.68 125.3 0 0 476.4159 290.8128
  A 1.81 1.68 125.3 0 0 473.9989 291.3192
  A 1.81 1.68 125.3 0 0 474.3241 293.7672"
/>
<path stroke="#e38080" vector-effect="non-scaling-stroke" d="
  M 673.7988 291.8213
  A 2.05 1.73 -11.5 0 0 671.4451 290.5347
  A 2.05 1.73 -11.5 0 0 669.7812 292.6387
  A 2.05 1.73 -11.5 0 0 672.1349 293.9253
  A 2.05 1.73 -11.5 0 0 673.7988 291.8213"
/>
<path stroke="#630000" vector-effect="non-scaling-stroke" d="
  M 62.36 103.23
  L 62.43 117.19"
/>
<path stroke="#e38080" vector-effect="non-scaling-stroke" d="
  M 62.43 117.19
  L 34.75 117.77
  A 0.97 0.97 0.0 0 0 33.80 118.74
  L 33.81 206.01
  A 1.38 1.38 0.0 0 0 35.19 207.39
  L 108.11 207.56"
/>
<path stroke="#630000" vector-effect="non-scaling-stroke" d="
  M 108.11 207.56
  Q 100.54 215.85 92.21 221.99"
/>
<path stroke="#e38080" vector-effect="non-scaling-stroke" d="
  M 92.21 221.99
  Q 89.79 221.52 87.21 221.68
  Q 84.35 221.86 82.14 221.89
  Q 60.26 222.15 34.97 222.11
  Q 33.79 222.11 33.79 223.29
  L 33.87 284.30
  Q 33.87 285.98 35.55 285.98
  L 89.75 286.05
  Q 91.23 286.05 91.24 284.56
  L 91.45 254.42"
/>
<path stroke="#630000" vector-effect="non-scaling-stroke" d="
  M 91.45 254.42
  Q 91.83 255.73 91.99 255.65
  Q 93.56 254.83 95.29 254.55
  Q 96.27 254.39 98.71 254.64
  Q 101.46 254.93 103.98 254.52"
/>
<path stroke="#e38080" vector-effect="non-scaling-stroke" d="
  M 103.98 254.52
  L 104.29 284.56
  A 1.49 1.49 0.0 0 0 105.78 286.04
  L 160.56 286.08
  A 1.23 1.22 -89.8 0 0 161.78 284.86
  L 161.99 255.30"
/>
<path stroke="#630000" vector-effect="non-scaling-stroke" d="
  M 161.99 255.30
  Q 165.50 254.36 166.75 254.34
  Q 168.87 254.30 173.50 254.92
  Q 174.00 254.99 174.45 254.60"
/>
<path stroke="#e38080" vector-effect="non-scaling-stroke" d="
  M 174.45 254.60
  L 174.88 284.63
  Q 174.91 286.11 176.39 286.11
  L 231.41 286.04
  A 0.69 0.69 0.0 0 0 232.10 285.36
  L 232.55 254.42"
/>
<path stroke="#630000" vector-effect="non-scaling-stroke" d="
  M 232.55 254.42
  Q 232.77 254.71 233.05 254.89
  Q 233.48 255.18 233.97 255.03
  Q 238.54 253.56 243.25 254.96
  Q 243.84 255.13 244.93 254.76"
/>
<path stroke="#e38080" vector-effect="non-scaling-stroke" d="
  M 244.93 254.76
  L 245.43 284.96
  A 1.13 1.13 0.0 0 0 246.56 286.07
  L 301.25 286.06
  A 1.55 1.54 90.0 0 0 302.79 284.51
  L 302.86 222.98
  A 0.99 0.99 0.0 0 0 301.88 221.99
  L 274.26 221.72"
/>
<path stroke="#630000" vector-effect="non-scaling-stroke" d="
  M 274.26 221.72
  L 274.40 207.89"
/>
<path stroke="#e38080" vector-effect="non-scaling-stroke" d="
  M 274.40 207.89
  Q 288.09 207.09 301.57 207.79
  A 1.05 1.05 0.0 0 0 302.67 206.85
  Q 302.85 204.93 302.86 202.75
  Q 302.91 163.18 302.88 118.79
  A 1.17 1.17 0.0 0 0 301.72 117.63
  L 229.60 117.36"
/>
<path stroke="#630000" vector-effect="non-scaling-stroke" d="
  M 229.60 117.36
  Q 237.04 109.16 241.25 106.03
  Q 244.28 103.78 244.90 103.00"
/>
<path stroke="#e38080" vector-effect="non-scaling-stroke" d="
  M 244.90 103.00
  L 301.90 103.02
  A 0.91 0.90 -83.6 0 0 302.78 102.31
  Q 302.96 101.51 302.95 100.69
  Q 302.83 71.68 302.75 40.12
  Q 302.75 39.10 301.73 39.10
  L 246.58 39.00
  A 1.13 1.13 0.0 0 0 245.45 40.12
  L 245.14 71.11"
/>
<path stroke="#630000" vector-effect="non-scaling-stroke" d="
  M 245.14 71.11
  L 232.52 71.22"
/>
<path stroke="#e38080" vector-effect="non-scaling-stroke" d="
  M 232.52 71.22
  L 232.29 39.82
  A 0.79 0.79 0.0 0 0 231.50 39.03
  L 176.24 39.02
  A 1.47 1.47 0.0 0 0 174.77 40.48
  L 174.55 71.16"
/>
<path stroke="#630000" vector-effect="non-scaling-stroke" d="
  M 174.55 71.16
  L 162.05 71.16"
/>
<path stroke="#e38080" vector-effect="non-scaling-stroke" d="
  M 162.05 71.16
  L 161.73 40.19
  A 1.19 1.18 89.5 0 0 160.55 39.02
  L 105.73 39.07
  A 1.36 1.36 0.0 0 0 104.37 40.42
  L 104.17 71.15"
/>
<path stroke="#630000" vector-effect="non-scaling-stroke" d="
  M 104.17 71.15
  L 91.57 71.22"
/>
<path stroke="#e38080" vector-effect="non-scaling-stroke" d="
  M 91.57 71.22
  L 91.22 40.70
  A 1.54 1.54 0.0 0 0 89.68 39.17
  L 34.95 39.22
  A 1.09 1.08 0.0 0 0 33.86 40.30
  L 33.80 101.49
  A 1.33 1.33 0.0 0 0 35.11 102.82
  L 62.36 103.23"
/>
<path stroke="#808080" vector-effect="non-scaling-stroke" d="
  M 91.57 71.22
  L 63.51 71.04
  Q 62.30 71.04 62.30 72.24
  L 62.36 103.23"
/>
<path stroke="#808080" vector-effect="non-scaling-stroke" d="
  M 229.60 117.36
  Q 225.10 120.13 221.47 124.57"
/>
<path stroke="#630000" vector-effect="non-scaling-stroke" d="
  M 221.47 124.57
  Q 217.76 126.76 216.55 128.05
  Q 212.94 131.84 209.09 134.92"
/>
<path stroke="#808080" vector-effect="non-scaling-stroke" d="
  M 209.09 134.92
  C 205.03 138.50 200.85 142.67 197.20 145.91
  Q 167.81 171.99 138.64 198.31
  C 136.13 200.57 131.53 203.95 128.51 207.58"
/>
<path stroke="#630000" vector-effect="non-scaling-stroke" d="
  M 128.51 207.58
  Q 121.53 212.95 115.22 219.24
  Q 114.75 219.70 113.66 221.94"
/>
<path stroke="#808080" vector-effect="non-scaling-stroke" d="
  M 113.66 221.94
  Q 112.39 221.53 111.44 222.41
  Q 103.27 229.99 94.81 237.31
  Q 93.64 238.32 92.88 239.57
  A 0.69 0.69 0.0 0 0 93.47 240.62
  L 161.91 240.38"
/>
<path stroke="#630000" vector-effect="non-scaling-stroke" d="
  M 161.91 240.38
  L 174.56 240.31"
/>
<path stroke="#808080" vector-effect="non-scaling-stroke" d="
  M 174.56 240.31
  L 232.64 240.34"
/>
<path stroke="#630000" vector-effect="non-scaling-stroke" d="
  M 232.64 240.34
  L 245.11 240.19"
/>
<path stroke="#808080" vector-effect="non-scaling-stroke" d="
  M 245.11 240.19
  L 260.91 240.42
  A 0.69 0.69 0.0 0 0 261.61 239.73
  Q 261.57 231.60 261.62 223.04
  A 2.19 2.11 -66.0 0 0 261.10 221.60
  Q 260.96 221.44 260.00 221.78"
/>
<path stroke="#630000" vector-effect="non-scaling-stroke" d="
  M 260.00 221.78
  Q 261.53 219.18 261.61 216.99
  Q 261.78 212.39 261.54 207.72"
/>
<path stroke="#808080" vector-effect="non-scaling-stroke" d="
  M 261.54 207.72
  L 261.45 176.44
  A 1.17 1.17 0.0 0 1 262.72 175.27
  Q 268.08 175.71 273.27 175.23
  A 0.87 0.87 0.0 0 1 274.22 176.10
  L 274.40 207.89"
/>
<path stroke="#808080" vector-effect="non-scaling-stroke" d="
  M 274.26 221.72
  L 274.40 253.28
  Q 274.40 254.66 273.03 254.66
  L 244.93 254.76"
/>
<path stroke="#808080" vector-effect="non-scaling-stroke" d="
  M 232.55 254.42
  L 174.45 254.60"
/>
<path stroke="#808080" vector-effect="non-scaling-stroke" d="
  M 161.99 255.30
  Q 162.80 254.44 161.75 254.44
  Q 132.83 254.51 103.98 254.52"
/>
<path stroke="#808080" vector-effect="non-scaling-stroke" d="
  M 91.45 254.42
  Q 79.06 254.53 66.32 254.51
  C 63.58 254.51 60.82 254.86 58.08 255.01
  A 0.85 0.85 0.0 0 1 57.32 253.70
  Q 58.34 252.14 59.69 250.94
  Q 75.75 236.75 92.21 221.99"
/>
<path stroke="#808080" vector-effect="non-scaling-stroke" d="
  M 108.11 207.56
  L 114.77 201.47"
/>
<path stroke="#630000" vector-effect="non-scaling-stroke" d="
  M 114.77 201.47
  L 127.76 190.20"
/>
<path stroke="#808080" vector-effect="non-scaling-stroke" d="
  M 127.76 190.20
  L 208.86 117.62"
/>
<path stroke="#630000" vector-effect="non-scaling-stroke" d="
  M 208.86 117.62
  L 225.17 103.03"
/>
<path stroke="#808080" vector-effect="non-scaling-stroke" d="
  M 225.17 103.03
  L 243.81 86.08
  A 0.56 0.56 0.0 0 0 243.43 85.10
  L 174.54 85.23"
/>
<path stroke="#630000" vector-effect="non-scaling-stroke" d="
  M 174.54 85.23
  Q 171.02 85.63 167.49 85.16
  Q 166.31 85.01 164.25 85.61
  Q 163.00 85.97 162.08 85.27"
/>
<path stroke="#808080" vector-effect="non-scaling-stroke" d="
  M 162.08 85.27
  L 103.98 85.33"
/>
<path stroke="#630000" vector-effect="non-scaling-stroke" d="
  M 103.98 85.33
  L 91.70 85.34"
/>
<path stroke="#808080" vector-effect="non-scaling-stroke" d="
  M 91.70 85.34
  L 75.81 85.27
  Q 75.24 85.27 75.24 85.83
  Q 75.16 93.93 75.20 102.33
  Q 75.20 102.76 75.45 103.10
  Q 75.87 103.68 76.43 103.19"
/>
<path stroke="#630000" vector-effect="non-scaling-stroke" d="
  M 76.43 103.19
  Q 76.57 104.61 76.42 104.59
  A 1.02 1.02 0.0 0 0 75.24 105.63
  Q 75.43 112.18 75.19 117.53"
/>
<path stroke="#808080" vector-effect="non-scaling-stroke" d="
  M 75.19 117.53
  L 75.29 148.96
  A 0.83 0.82 0.0 0 1 74.46 149.78
  L 63.46 149.73
  A 1.00 0.99 90.0 0 1 62.47 148.73
  L 62.43 117.19"
/>
<path stroke="#808080" vector-effect="non-scaling-stroke" d="
  M 232.52 71.22
  L 174.55 71.16"
/>
<path stroke="#e38080" vector-effect="non-scaling-stroke" d="
  M 174.54 85.23
  L 174.70 101.08
  Q 174.72 103.01 176.64 103.01
  L 225.17 103.03"
/>
<path stroke="#e38080" vector-effect="non-scaling-stroke" d="
  M 208.86 117.62
  L 128.81 117.79
  Q 127.77 117.79 127.77 118.83
  L 127.76 190.20"
/>
<path stroke="#e38080" vector-effect="non-scaling-stroke" d="
  M 114.77 201.47
  L 114.73 118.68
  A 1.04 1.03 90.0 0 0 113.70 117.64
  L 75.19 117.53"
/>
<path stroke="#e38080" vector-effect="non-scaling-stroke" d="
  M 76.43 103.19
  L 89.61 103.06
  A 1.84 1.84 0.0 0 0 91.43 101.25
  L 91.70 85.34"
/>
<path stroke="#e38080" vector-effect="non-scaling-stroke" d="
  M 103.98 85.33
  L 104.23 101.35
  Q 104.25 102.86 105.76 102.87
  L 160.79 103.00
  A 1.10 1.09 0.3 0 0 161.89 101.92
  L 162.08 85.27"
/>
<path stroke="#808080" vector-effect="non-scaling-stroke" d="
  M 244.90 103.00
  Q 260.60 88.83 276.02 75.78
  Q 278.00 74.11 279.46 71.82
  A 0.81 0.80 -77.8 0 0 278.67 70.59
  Q 273.76 71.25 268.75 71.27
  Q 256.98 71.34 245.14 71.11"
/>
<path stroke="#e38080" vector-effect="non-scaling-stroke" d="
  M 260.00 221.78
  L 246.86 221.97
  Q 245.29 221.99 245.28 223.56
  L 245.11 240.19"
/>
<path stroke="#e38080" vector-effect="non-scaling-stroke" d="
  M 232.64 240.34
  L 232.56 223.28
  Q 232.55 221.98 231.26 221.98
  L 175.81 222.01
  A 1.05 1.04 -89.7 0 0 174.77 223.05
  L 174.56 240.31"
/>
<path stroke="#e38080" vector-effect="non-scaling-stroke" d="
  M 161.91 240.38
  L 161.74 222.80
  Q 161.73 222.00 160.94 222.00
  L 113.66 221.94"
/>
<path stroke="#e38080" vector-effect="non-scaling-stroke" d="
  M 128.51 207.58
  L 207.74 207.63
  Q 208.85 207.63 208.85 206.53
  L 209.09 134.92"
/>
<path stroke="#e38080" vector-effect="non-scaling-stroke" d="
  M 261.54 207.72
  L 222.56 207.59
  A 0.80 0.80 0.0 0 1 221.76 206.79
  L 221.47 124.57"
/>
<path stroke="#808080" vector-effect="non-scaling-stroke" d="
  M 162.05 71.16
  L 104.17 71.15"
/>
<path stroke="#d48281" vector-effect="non-scaling-stroke" d="
  M 703.9247 216.7179
  A 3.78 2.81 91.9 0 0 706.8585 213.0332
  A 3.78 2.81 91.9 0 0 704.1753 209.1621
  A 3.78 2.81 91.9 0 0 701.2415 212.8468
  A 3.78 2.81 91.9 0 0 703.9247 216.7179"
/>
<path stroke="#d48281" vector-effect="non-scaling-stroke" d="
  M 708.12 230.61
  L 703.02 223.53
  A 1.02 1.02 0.0 0 0 701.60 223.30
  L 700.13 224.36
  A 5.41 4.93 -35.8 0 0 698.63 231.53
  L 699.15 232.26
  A 5.41 4.93 -35.8 0 0 706.42 233.09
  L 707.89 232.03
  A 1.02 1.02 0.0 0 0 708.12 230.61"
/>
<path stroke="#d48281" vector-effect="non-scaling-stroke" d="
  M 634.6800 234.1700
  A 8.00 5.14 90.0 0 0 639.8200 226.1700
  A 8.00 5.14 90.0 0 0 634.6800 218.1700
  A 8.00 5.14 90.0 0 0 629.5400 226.1700
  A 8.00 5.14 90.0 0 0 634.6800 234.1700"
/>
<path stroke="#d48281" vector-effect="non-scaling-stroke" d="
  M 821.3445 234.6600
  A 8.29 5.60 89.9 0 0 826.9300 226.3602
  A 8.29 5.60 89.9 0 0 821.3155 218.0800
  A 8.29 5.60 89.9 0 0 815.7300 226.3798
  A 8.29 5.60 89.9 0 0 821.3445 234.6600"
/>
<path stroke="#d48281" vector-effect="non-scaling-stroke" d="
  M 1037.05 227.25
  L 1029.82 229.63
  A 1.25 1.25 0.0 0 0 1029.02 231.21
  L 1029.07 231.38
  A 4.92 4.75 -18.2 0 0 1035.23 234.36
  L 1035.50 234.27
  A 4.92 4.75 -18.2 0 0 1038.69 228.22
  L 1038.63 228.05
  A 1.25 1.25 0.0 0 0 1037.05 227.25"
/>
<path stroke="#d48281" vector-effect="non-scaling-stroke" d="
  M 464.92 227.19
  C 462.72 227.58 459.09 228.05 457.23 229.39
  C 454.29 231.48 457.17 235.30 460.28 234.78
  Q 465.70 233.87 465.71 227.85
  A 0.68 0.67 -4.7 0 0 464.92 227.19"
/>
<path stroke="#e38080" vector-effect="non-scaling-stroke" d="
  M 562.05 277.19
  A 1.13 1.13 0.0 0 0 561.08 277.48
  L 558.26 280.14
  A 1.13 1.13 0.0 0 0 559.06 282.09
  L 566.58 281.97
  A 1.13 1.13 0.0 0 0 567.35 280.03
  L 565.20 277.95
  A 1.13 1.13 0.0 0 0 564.61 277.65
  L 562.05 277.19"
/>
<path stroke="#e38080" vector-effect="non-scaling-stroke" d="
  M 718.4113 291.3897
  A 7.02 5.13 89.5 0 0 723.4798 284.3252
  A 7.02 5.13 89.5 0 0 718.2887 277.3503
  A 7.02 5.13 89.5 0 0 713.2202 284.4148
  A 7.02 5.13 89.5 0 0 718.4113 291.3897"
/>
</g>
<path fill="#ffffff" d="
  M 0.00 0.00
  L 1196.00 0.00
  L 1196.00 332.00
  L 0.00 332.00
  L 0.00 0.00
  Z
  M 315.89 25.95
  A 1.14 1.14 0.0 0 0 314.75 24.81
  L 21.59 24.81
  A 1.14 1.14 0.0 0 0 20.45 25.95
  L 20.45 300.45
  A 1.14 1.14 0.0 0 0 21.59 301.59
  L 314.75 301.59
  A 1.14 1.14 0.0 0 0 315.89 300.45
  L 315.89 25.95
  Z
  M 1105.90 161.18
  C 1081.20 146.21 1073.66 114.44 1085.48 89.39
  Q 1092.39 74.73 1107.21 66.45
  Q 1115.84 61.63 1126.52 61.20
  Q 1148.29 60.32 1163.42 76.39
  Q 1163.84 76.83 1164.24 76.39
  Q 1167.62 72.73 1170.16 68.46
  A 2.22 2.22 0.0 0 0 1169.60 65.56
  C 1165.53 62.44 1161.59 59.09 1157.17 56.68
  C 1141.98 48.41 1125.77 46.58 1109.62 52.33
  C 1076.69 64.05 1062.52 98.74 1070.15 131.62
  Q 1075.46 154.51 1093.75 168.19
  C 1111.92 181.76 1135.57 183.31 1155.36 172.69
  Q 1163.52 168.32 1170.09 161.98
  A 1.95 1.95 0.0 0 0 1170.21 159.31
  L 1164.38 152.51
  A 0.88 0.88 0.0 0 0 1162.99 152.58
  C 1160.92 155.65 1157.85 157.57 1154.81 159.58
  C 1139.79 169.50 1121.44 170.60 1105.90 161.18
  Z
  M 389.76 50.84
  A 1.51 1.51 0.0 0 0 388.25 49.33
  L 379.67 49.33
  A 1.51 1.51 0.0 0 0 378.16 50.84
  L 378.16 177.42
  A 1.51 1.51 0.0 0 0 379.67 178.93
  L 388.25 178.93
  A 1.51 1.51 0.0 0 0 389.76 177.42
  L 389.76 50.84
  Z
  M 431.51 71.22
  Q 439.00 83.04 447.52 95.90
  Q 474.80 137.05 502.29 178.11
  Q 502.89 179.00 503.96 179.01
  L 514.41 179.06
  A 1.06 0.96 90.0 0 0 515.37 178.00
  L 515.37 50.11
  A 0.76 0.76 0.0 0 0 514.61 49.35
  L 505.26 49.26
  Q 503.99 49.25 503.99 50.52
  Q 503.90 108.03 504.07 156.85
  Q 504.07 157.29 503.89 157.67
  A 0.48 0.48 0.0 0 1 503.05 157.72
  Q 490.26 137.61 476.73 117.66
  Q 471.27 109.60 465.62 101.00
  Q 448.64 75.12 431.92 50.24
  A 1.92 1.91 73.0 0 0 430.33 49.39
  L 419.89 49.33
  A 1.03 1.03 0.0 0 0 418.85 50.36
  L 418.88 177.70
  A 1.32 1.32 0.0 0 0 420.20 179.02
  L 429.37 179.03
  A 1.15 1.15 0.0 0 0 430.52 177.88
  L 430.52 71.51
  Q 430.52 69.65 431.51 71.22
  Z
  M 584.54 165.38
  Q 584.11 164.80 584.04 163.93
  Q 583.97 163.02 583.69 162.21
  C 574.54 135.93 565.08 109.44 556.39 84.45
  Q 553.84 77.14 550.90 69.11
  C 548.61 62.86 546.50 56.61 544.05 50.44
  A 1.83 1.81 -10.5 0 0 542.37 49.30
  L 532.44 49.28
  A 0.66 0.65 -2.4 0 0 531.78 49.99
  Q 531.97 52.33 532.93 54.75
  C 539.42 71.05 547.49 94.58 555.16 115.15
  Q 562.54 134.91 569.41 154.34
  C 571.79 161.05 575.39 169.84 578.01 177.92
  A 1.58 1.57 81.2 0 0 579.49 179.01
  L 590.02 179.09
  A 1.65 1.64 -75.7 0 0 591.49 178.21
  Q 592.27 176.70 592.87 175.06
  Q 615.45 113.25 638.66 50.53
  A 0.93 0.93 0.0 0 0 637.77 49.27
  L 627.93 49.41
  A 1.78 1.77 9.2 0 0 626.28 50.59
  L 585.46 165.25
  Q 585.13 166.18 584.54 165.38
  Z
  M 667.27 61.54
  L 732.29 61.52
  A 1.19 1.19 0.0 0 0 733.48 60.34
  L 733.50 51.14
  A 1.61 1.61 0.0 0 0 731.89 49.52
  L 655.80 49.46
  A 0.99 0.99 0.0 0 0 654.81 50.45
  L 654.85 177.51
  A 1.42 1.42 0.0 0 0 656.27 178.93
  L 734.66 178.89
  A 0.84 0.84 0.0 0 0 735.50 178.05
  L 735.49 168.72
  A 1.27 1.26 89.5 0 0 734.22 167.46
  Q 703.78 167.62 672.02 167.30
  Q 669.84 167.28 667.33 167.23
  A 0.73 0.73 0.0 0 1 666.61 166.50
  L 666.51 119.74
  A 0.75 0.75 0.0 0 1 667.26 118.99
  L 725.17 119.13
  Q 726.10 119.13 726.15 118.21
  Q 726.37 113.46 726.14 108.99
  A 1.34 1.33 -1.6 0 0 724.80 107.73
  L 667.30 107.78
  A 0.73 0.72 90.0 0 1 666.58 107.05
  L 666.58 62.23
  Q 666.58 61.54 667.27 61.54
  Z
  M 769.46 70.57
  A 0.11 0.11 0.0 0 1 769.62 70.59
  L 840.78 177.65
  A 3.17 3.16 73.2 0 0 843.42 179.07
  L 853.27 179.07
  Q 854.37 179.07 854.37 177.96
  Q 854.40 120.11 854.33 58.30
  Q 854.32 54.73 854.20 50.81
  Q 854.16 49.49 852.85 49.40
  Q 847.92 49.07 843.52 49.61
  A 0.66 0.65 88.5 0 0 842.94 50.23
  Q 842.76 53.47 842.76 57.06
  Q 842.74 106.10 842.91 146.65
  Q 842.93 151.28 843.29 157.56
  A 0.41 0.41 0.0 0 1 842.85 158.00
  Q 842.30 157.96 842.00 157.50
  Q 806.18 103.24 770.59 49.91
  A 1.62 1.60 70.5 0 0 769.12 49.20
  Q 764.02 49.66 758.85 49.21
  A 1.25 1.24 2.3 0 0 757.50 50.45
  Q 757.57 115.51 757.55 176.68
  Q 757.55 177.61 757.79 178.44
  Q 757.95 178.99 758.52 178.99
  L 768.40 179.07
  A 1.02 1.02 0.0 0 0 769.43 178.05
  Q 769.46 122.93 769.28 71.03
  Q 769.28 70.76 769.46 70.57
  Z
  M 876.26 60.53
  A 1.07 1.07 0.0 0 0 877.33 61.61
  L 914.02 61.51
  A 1.07 1.07 0.0 0 1 915.09 62.58
  L 915.10 178.00
  A 1.07 1.07 0.0 0 0 916.18 179.07
  L 925.68 179.03
  A 1.07 1.07 0.0 0 0 926.74 177.96
  L 926.72 62.57
  A 1.07 1.07 0.0 0 1 927.80 61.49
  L 964.65 61.66
  A 1.07 1.07 0.0 0 0 965.73 60.58
  L 965.63 50.49
  A 1.07 1.07 0.0 0 0 964.56 49.43
  L 877.43 49.53
  A 1.07 1.07 0.0 0 0 876.36 50.59
  L 876.26 60.53
  Z
  M 1032.73 115.30
  A 1.63 1.63 0.0 0 0 1031.10 113.67
  L 995.74 113.67
  A 1.63 1.63 0.0 0 0 994.11 115.30
  L 994.11 120.52
  A 1.63 1.63 0.0 0 0 995.74 122.15
  L 1031.10 122.15
  A 1.63 1.63 0.0 0 0 1032.73 120.52
  L 1032.73 115.30
  Z
  M 706.78 222.03
  Q 705.73 220.60 706.99 219.35
  Q 708.80 217.54 710.13 215.64
  C 713.48 210.87 706.98 202.95 701.80 205.91
  C 698.65 207.70 695.91 211.32 697.64 215.03
  Q 698.46 216.78 699.56 218.36
  A 1.27 1.27 0.0 0 1 699.24 220.14
  C 692.70 224.64 691.30 231.39 697.77 236.95
  C 702.13 240.69 706.58 238.37 709.98 234.94
  A 0.81 0.80 47.1 0 1 711.18 234.99
  L 713.53 237.76
  A 1.92 1.92 0.0 0 0 716.78 237.23
  C 717.81 234.64 715.16 233.01 713.75 231.43
  A 1.92 1.91 -47.5 0 1 713.65 229.02
  Q 715.14 227.02 715.39 224.44
  A 1.58 1.57 1.4 0 0 713.75 222.72
  Q 712.23 222.78 711.01 224.77
  Q 709.99 226.42 708.84 224.85
  L 706.78 222.03
  Z
  M 771.02 227.95
  C 769.23 222.10 769.50 213.61 775.74 210.44
  C 781.08 207.72 784.15 212.35 786.92 215.79
  A 1.55 1.55 0.0 0 0 789.64 215.16
  C 790.28 212.39 788.24 210.02 786.38 208.27
  Q 781.64 203.82 775.67 205.73
  C 764.86 209.18 763.70 223.13 767.79 231.47
  C 771.94 239.90 781.91 241.61 787.87 234.10
  C 789.33 232.27 790.87 229.77 789.85 227.39
  A 1.75 1.75 0.0 0 0 786.68 227.28
  C 785.07 230.45 783.44 233.90 779.48 234.34
  C 775.25 234.80 772.16 231.68 771.02 227.95
  Z
  M 378.48 209.87
  A 0.96 0.96 0.0 0 0 379.49 210.82
  L 386.15 210.46
  A 0.96 0.96 0.0 0 1 387.16 211.42
  L 387.26 237.16
  A 0.96 0.96 0.0 0 0 388.23 238.12
  L 390.49 238.08
  A 0.96 0.96 0.0 0 0 391.43 237.12
  L 391.54 211.31
  A 0.96 0.96 0.0 0 1 392.52 210.35
  L 399.49 210.50
  A 0.96 0.96 0.0 0 0 400.46 209.49
  L 400.33 206.93
  A 0.96 0.96 0.0 0 0 399.37 206.03
  L 379.40 205.92
  A 0.96 0.96 0.0 0 0 378.44 206.90
  L 378.48 209.87
  Z
  M 970.75 206.35
  L 970.59 238.01
  A 0.25 0.25 0.0 0 0 970.84 238.26
  L 971.80 238.27
  A 7.98 1.99 -89.7 0 0 973.83 230.30
  L 973.91 214.10
  A 7.98 1.99 -89.7 0 0 971.96 206.11
  L 971.00 206.10
  A 0.25 0.25 0.0 0 0 970.75 206.35
  Z
  M 496.1759 207.1973
  A 1.05 1.05 0.0 0 0 495.1077 206.1658
  L 494.5878 206.1749
  A 1.05 1.05 0.0 0 0 493.5563 207.2431
  L 493.6041 209.9827
  A 1.05 1.05 0.0 0 0 494.6723 211.0142
  L 495.1922 211.0051
  A 1.05 1.05 0.0 0 0 496.2237 209.9369
  L 496.1759 207.1973
  Z
  M 561.7002 211.5835
  A 2.79 1.25 93.9 0 0 563.1371 208.8850
  A 2.79 1.25 93.9 0 0 562.0798 206.0165
  A 2.79 1.25 93.9 0 0 560.6429 208.7150
  A 2.79 1.25 93.9 0 0 561.7002 211.5835
  Z
  M 1002.26 231.53
  Q 1001.98 227.38 1001.99 221.28
  C 1001.99 219.54 1003.43 218.72 1004.63 217.80
  A 1.52 1.52 0.0 0 0 1004.47 215.29
  C 1001.69 213.68 1002.04 210.70 1001.73 207.90
  Q 1001.66 207.32 1001.08 207.29
  Q 999.12 207.19 998.56 209.05
  Q 997.60 212.26 996.39 215.52
  C 995.52 217.85 997.78 219.44 997.76 221.93
  Q 997.73 226.46 997.80 231.26
  C 997.87 235.45 999.49 239.59 1004.46 238.47
  A 1.78 1.78 0.0 0 0 1005.72 236.08
  Q 1005.22 234.81 1004.02 234.20
  A 3.23 3.22 -78.5 0 1 1002.26 231.53
  Z
  M 639.63 237.07
  C 639.85 240.46 637.24 243.52 633.85 243.59
  Q 633.18 243.60 632.66 243.16
  C 630.95 241.75 629.75 239.90 627.47 239.35
  A 1.06 1.06 0.0 0 0 626.16 240.35
  Q 626.03 244.07 629.85 246.41
  C 634.04 248.98 639.28 247.21 641.98 243.38
  Q 643.46 241.27 643.56 237.76
  Q 643.90 225.13 643.59 215.47
  A 0.89 0.89 0.0 0 0 642.31 214.70
  Q 639.14 216.26 636.56 214.58
  C 632.15 211.70 627.02 217.68 625.98 221.27
  Q 623.19 230.82 630.11 236.80
  C 633.27 239.53 635.65 237.82 638.77 236.53
  Q 639.58 236.20 639.63 237.07
  Z
  M 821.4135 238.8099
  A 12.46 9.95 89.8 0 0 831.3199 226.3153
  A 12.46 9.95 89.8 0 0 821.3265 213.8901
  A 12.46 9.95 89.8 0 0 811.4201 226.3847
  A 12.46 9.95 89.8 0 0 821.4135 238.8099
  Z
  M 895.94 220.20
  C 896.99 217.21 900.18 217.23 902.11 219.18
  Q 903.53 220.62 905.06 221.49
  Q 907.02 222.60 907.24 220.36
  Q 907.42 218.43 905.48 216.40
  Q 904.71 215.60 903.74 215.05
  Q 897.68 211.62 892.86 217.31
  Q 889.81 220.91 892.80 224.28
  C 895.82 227.69 897.92 227.88 901.77 228.98
  C 904.83 229.85 904.99 233.14 901.91 234.31
  C 897.67 235.91 896.60 232.87 894.10 230.50
  A 1.69 1.69 0.0 0 0 891.26 231.48
  C 890.91 233.90 893.54 236.52 895.45 237.71
  C 904.03 243.02 915.00 229.57 903.54 224.97
  Q 900.50 223.75 897.28 222.80
  A 2.02 2.02 0.0 0 1 895.94 220.20
  Z
  M 1037.38 223.58
  C 1032.72 224.87 1029.21 223.78 1025.99 228.43
  C 1024.65 230.36 1024.71 233.10 1026.00 235.00
  Q 1030.43 241.56 1037.25 237.12
  A 2.61 2.61 0.0 0 1 1040.01 237.06
  L 1042.43 238.50
  A 0.90 0.90 0.0 0 0 1043.78 237.62
  Q 1042.78 229.79 1043.23 221.69
  C 1043.81 211.24 1026.61 211.56 1025.93 221.16
  A 0.92 0.91 13.0 0 0 1026.51 222.08
  C 1029.44 223.21 1031.15 218.31 1034.18 218.00
  Q 1037.38 217.68 1038.74 220.65
  A 2.12 2.12 0.0 0 1 1037.38 223.58
  Z
  M 1070.26 226.00
  C 1070.23 222.34 1071.09 218.25 1075.70 218.55
  C 1078.00 218.70 1079.08 220.94 1079.08 222.95
  Q 1079.08 229.36 1078.94 236.35
  Q 1078.91 237.90 1080.45 238.08
  L 1081.46 238.20
  Q 1083.32 238.41 1083.29 236.54
  Q 1083.17 230.37 1083.31 223.50
  C 1083.39 219.45 1082.21 216.01 1078.41 214.35
  C 1075.84 213.23 1073.93 214.39 1071.67 215.40
  C 1070.09 216.11 1068.69 215.41 1067.35 214.63
  A 0.75 0.74 -74.6 0 0 1066.23 215.27
  L 1066.13 236.44
  Q 1066.12 238.26 1067.94 238.24
  L 1068.50 238.23
  Q 1070.25 238.20 1070.27 236.46
  Q 1070.32 231.26 1070.26 226.00
  Z
  M 1109.91 222.16
  C 1110.76 219.58 1114.01 216.70 1116.62 219.12
  Q 1118.33 220.71 1119.99 222.41
  A 1.40 1.40 0.0 0 0 1122.33 221.86
  Q 1122.80 220.35 1122.07 218.90
  C 1119.77 214.37 1114.51 212.14 1110.00 215.39
  C 1105.51 218.62 1104.39 223.83 1105.15 229.06
  C 1106.17 236.08 1113.45 242.71 1120.04 236.36
  C 1121.56 234.91 1123.16 232.59 1123.00 230.73
  A 1.98 1.98 0.0 0 0 1119.28 229.99
  C 1118.31 231.84 1116.44 235.46 1113.72 234.55
  C 1108.88 232.93 1108.58 226.18 1109.91 222.16
  Z
  M 464.50 223.65
  C 459.80 224.43 455.18 224.10 452.38 228.73
  C 451.31 230.50 451.33 232.88 452.38 234.64
  Q 456.63 241.73 464.28 236.87
  A 2.05 2.05 0.0 0 1 466.66 237.01
  Q 467.86 237.97 469.35 238.47
  A 0.78 0.77 -84.9 0 0 470.36 237.62
  Q 469.43 230.95 469.77 223.05
  C 469.94 218.99 468.76 215.58 464.63 214.38
  C 460.24 213.11 453.20 215.02 452.51 220.46
  A 1.65 1.64 74.2 0 0 455.17 221.95
  C 457.31 220.23 459.22 217.15 462.48 218.14
  Q 466.19 219.27 465.26 222.95
  Q 465.11 223.54 464.50 223.65
  Z
  M 528.32 218.45
  C 531.11 218.15 532.57 219.49 532.72 222.31
  Q 533.13 230.07 532.73 236.47
  Q 532.64 237.89 534.06 237.96
  L 535.48 238.02
  Q 536.85 238.08 536.90 236.70
  Q 537.18 228.85 536.91 221.87
  C 536.76 217.92 533.27 212.83 528.67 214.29
  Q 526.74 214.90 524.84 215.61
  C 523.61 216.07 522.45 215.37 521.36 214.85
  A 0.99 0.99 0.0 0 0 519.94 215.74
  L 519.76 236.48
  Q 519.75 237.96 521.23 237.98
  L 522.77 238.01
  A 1.37 1.36 -89.2 0 0 524.15 236.66
  Q 524.24 230.31 524.25 223.63
  Q 524.26 218.89 528.32 218.45
  Z
  M 596.29 218.44
  C 598.57 218.60 599.62 220.89 599.67 222.86
  Q 599.81 228.48 599.51 236.05
  A 2.10 2.09 -90.0 0 0 601.68 238.23
  Q 601.87 238.23 602.06 238.23
  Q 603.75 238.27 603.75 236.57
  Q 603.73 230.31 603.81 222.47
  C 603.85 218.65 601.91 215.15 598.15 214.19
  C 594.29 213.21 591.78 217.47 587.86 214.72
  A 0.69 0.69 0.0 0 0 586.77 215.29
  L 586.72 236.55
  Q 586.71 238.14 588.30 238.12
  L 589.42 238.11
  Q 590.75 238.10 590.77 236.78
  Q 590.87 231.31 590.74 225.69
  C 590.66 222.10 591.74 218.13 596.29 218.44
  Z
  M 859.49 218.91
  C 863.22 217.44 865.65 219.54 865.68 223.26
  Q 865.73 229.39 865.68 236.32
  Q 865.67 238.22 867.57 238.24
  L 868.07 238.24
  A 1.60 1.60 0.0 0 0 869.69 236.67
  Q 869.86 229.16 869.73 222.09
  Q 869.63 216.42 864.68 214.30
  C 862.56 213.39 859.89 214.74 857.87 215.48
  C 856.41 216.02 854.99 215.24 853.69 214.64
  A 0.46 0.45 -76.8 0 0 853.04 215.05
  L 852.81 236.23
  Q 852.79 238.17 854.73 238.16
  Q 855.02 238.16 855.31 238.16
  Q 856.88 238.13 856.87 236.56
  Q 856.83 230.70 856.83 225.17
  C 856.83 223.24 857.37 219.75 859.49 218.91
  Z
  M 425.87 225.16
  C 425.89 220.65 427.03 218.78 431.86 218.97
  A 0.78 0.78 0.0 0 0 432.65 218.34
  Q 432.90 217.02 432.68 215.86
  A 2.30 2.29 70.9 0 0 429.38 214.25
  Q 425.67 216.14 422.60 214.94
  A 0.61 0.61 0.0 0 0 421.77 215.51
  L 421.92 236.27
  Q 421.94 238.25 423.92 238.27
  Q 424.08 238.27 424.24 238.27
  Q 425.76 238.27 425.78 236.75
  Q 425.85 231.04 425.87 225.16
  Z
  M 1151.16 230.10
  Q 1150.94 229.85 1150.85 229.52
  Q 1149.02 222.92 1146.97 216.67
  A 3.36 3.35 -5.4 0 0 1144.21 214.39
  Q 1144.05 214.36 1143.87 214.38
  Q 1141.83 214.57 1142.46 216.52
  Q 1145.45 225.79 1148.61 234.28
  C 1150.14 238.41 1149.12 242.80 1143.96 242.86
  Q 1143.33 242.87 1143.40 243.50
  Q 1143.61 245.31 1144.44 246.86
  A 1.05 1.04 -4.9 0 0 1145.06 247.38
  C 1149.03 248.67 1151.91 243.13 1152.82 240.19
  Q 1156.43 228.58 1160.95 216.41
  A 1.52 1.52 0.0 0 0 1159.81 214.38
  C 1156.96 213.82 1155.61 218.00 1155.05 220.05
  Q 1153.77 224.66 1152.36 229.83
  Q 1152.01 231.10 1151.16 230.10
  Z
  M 563.2757 215.9330
  A 1.03 1.03 0.0 0 0 562.2404 214.9084
  L 561.5804 214.9119
  A 1.03 1.03 0.0 0 0 560.5558 215.9473
  L 560.6643 236.6670
  A 1.03 1.03 0.0 0 0 561.6996 237.6916
  L 562.3596 237.6881
  A 1.03 1.03 0.0 0 0 563.3842 236.6527
  L 563.2757 215.9330
  Z
  M 943.02 226.69
  C 943.08 230.49 942.25 234.51 937.69 234.47
  C 935.32 234.45 934.26 232.01 934.26 229.97
  Q 934.26 223.24 934.31 216.58
  Q 934.32 214.75 932.50 214.75
  L 931.78 214.74
  Q 930.04 214.73 930.01 216.48
  Q 929.87 223.91 930.10 230.42
  Q 930.27 235.37 934.11 237.88
  C 936.72 239.58 939.05 238.68 941.44 237.24
  C 942.87 236.37 944.28 237.13 945.43 238.06
  Q 945.95 238.47 946.54 238.20
  A 0.67 0.65 -13.0 0 0 946.92 237.61
  L 947.01 216.66
  Q 947.01 214.75 945.09 214.76
  L 944.24 214.76
  A 1.38 1.38 0.0 0 0 942.87 216.15
  Q 942.93 221.21 943.02 226.69
  Z
  M 496.7437 216.3598
  A 1.30 1.30 0.0 0 0 495.4505 215.0530
  L 494.3505 215.0473
  A 1.30 1.30 0.0 0 0 493.0437 216.3405
  L 492.9363 236.8602
  A 1.30 1.30 0.0 0 0 494.2295 238.1670
  L 495.3295 238.1727
  A 1.30 1.30 0.0 0 0 496.6363 236.8795
  L 496.7437 216.3598
  Z
  M 492.42 267.42
  L 490.67 267.33
  A 0.52 0.52 0.0 0 0 490.12 267.82
  L 490.10 268.28
  A 2.88 0.93 -87.2 0 0 490.89 271.20
  L 491.83 271.25
  A 2.88 0.93 -87.2 0 0 492.89 268.42
  L 492.92 267.96
  A 0.52 0.52 0.0 0 0 492.42 267.42
  Z
  M 613.39 273.79
  Q 612.99 271.49 613.05 269.46
  Q 613.09 268.06 611.80 268.62
  Q 611.63 268.69 611.48 268.76
  A 2.85 2.83 -8.5 0 0 609.87 270.92
  Q 609.43 273.92 607.72 276.03
  A 0.57 0.57 0.0 0 0 607.81 276.84
  C 608.90 277.69 609.68 278.89 609.71 280.30
  Q 609.80 284.44 609.70 288.91
  C 609.62 292.30 610.95 294.79 614.85 294.44
  Q 615.33 294.40 615.59 294.00
  Q 616.09 293.27 615.75 292.40
  C 615.13 290.78 612.97 291.05 612.99 288.75
  Q 613.04 284.80 613.05 280.57
  Q 613.05 278.38 615.19 277.40
  Q 615.70 277.17 615.77 276.62
  Q 616.00 274.96 614.24 274.64
  A 1.05 1.03 89.5 0 1 613.39 273.79
  Z
  M 558.61 285.15
  Q 564.61 285.43 570.10 285.00
  A 1.43 1.43 0.0 0 0 571.42 283.50
  Q 571.12 277.40 566.22 274.87
  C 561.16 272.25 555.52 276.38 554.59 281.51
  Q 553.20 289.17 558.55 293.07
  C 561.88 295.49 566.45 294.62 569.26 291.92
  Q 570.66 290.58 570.67 288.95
  A 0.82 0.82 0.0 0 0 569.49 288.20
  C 567.30 289.29 565.48 291.44 562.95 291.29
  Q 558.63 291.02 557.80 286.06
  Q 557.64 285.11 558.61 285.15
  Z
  M 420.12 280.61
  Q 421.52 286.56 422.86 292.43
  C 423.20 293.91 424.86 294.41 426.14 293.87
  A 2.06 2.04 86.8 0 0 427.32 292.53
  L 431.89 275.88
  Q 432.29 274.41 430.77 274.50
  L 430.39 274.52
  Q 428.63 274.62 428.24 276.34
  Q 427.09 281.46 425.76 286.37
  Q 425.52 287.23 425.03 288.00
  A 0.35 0.35 0.0 0 1 424.39 287.89
  Q 422.94 281.86 421.89 276.57
  Q 421.39 274.03 418.80 274.74
  Q 417.77 275.02 417.62 276.08
  Q 416.77 281.94 415.22 287.10
  Q 414.36 289.97 413.74 287.04
  Q 412.77 282.49 411.54 277.20
  Q 410.99 274.85 409.03 274.37
  Q 408.74 274.29 408.46 274.42
  Q 407.48 274.86 407.72 275.90
  Q 409.14 282.22 411.63 290.20
  Q 412.14 291.81 412.76 293.24
  A 1.16 1.16 0.0 0 0 413.44 293.88
  C 414.74 294.35 416.58 293.98 416.79 292.35
  Q 417.56 286.49 419.65 280.58
  Q 419.93 279.80 420.12 280.61
  Z
  M 511.71 277.45
  C 513.94 277.43 515.55 279.09 515.55 281.00
  Q 515.54 286.92 515.58 292.65
  A 1.38 1.37 17.1 0 0 516.19 293.79
  Q 517.02 294.34 517.86 294.02
  Q 518.97 293.60 518.93 292.42
  Q 518.78 287.50 518.97 282.20
  C 519.13 277.70 516.83 272.57 511.22 274.64
  C 509.11 275.42 507.97 276.48 505.87 274.67
  Q 505.50 274.35 505.02 274.51
  Q 504.50 274.68 504.50 275.23
  L 504.55 292.78
  Q 504.56 293.76 505.53 293.75
  L 506.80 293.75
  Q 507.85 293.74 507.82 292.68
  C 507.70 288.37 506.49 277.50 511.71 277.45
  Z
  M 538.13 288.73
  Q 537.75 289.87 537.40 288.72
  L 533.55 275.97
  A 1.97 1.95 6.2 0 0 532.60 274.80
  Q 531.64 274.29 530.83 274.48
  A 1.38 1.38 0.0 0 0 529.85 276.26
  Q 532.59 284.39 535.48 292.19
  C 536.74 295.57 539.88 294.33 540.81 291.52
  Q 543.33 283.86 545.53 276.00
  Q 545.93 274.59 544.48 274.31
  Q 544.15 274.24 543.84 274.38
  Q 542.11 275.15 541.57 277.19
  Q 539.91 283.43 538.13 288.73
  Z
  M 590.50 277.38
  C 593.35 277.85 594.09 280.01 594.06 282.51
  Q 593.99 287.92 594.03 292.71
  Q 594.04 294.03 595.36 293.97
  L 595.75 293.96
  Q 597.30 293.89 597.27 292.34
  Q 597.17 287.36 597.34 281.62
  C 597.50 275.92 593.78 272.28 588.04 275.37
  Q 587.53 275.64 586.98 275.50
  L 583.64 274.65
  A 0.61 0.61 0.0 0 0 582.88 275.24
  L 582.82 292.37
  Q 582.82 293.92 584.37 293.96
  L 585.25 293.98
  A 1.38 1.37 -1.0 0 0 586.66 292.53
  C 586.45 289.05 584.93 276.47 590.50 277.38
  Z
  M 647.01 287.06
  C 646.26 283.40 646.48 280.20 649.78 277.93
  C 652.46 276.09 655.13 279.46 656.89 281.18
  A 0.92 0.91 27.6 0 0 658.43 280.70
  Q 658.74 279.15 657.95 277.78
  C 655.79 274.04 651.03 273.13 647.43 275.42
  C 643.11 278.17 642.24 285.16 644.36 289.45
  C 647.01 294.79 652.95 296.12 657.38 291.66
  Q 659.05 289.98 658.77 287.63
  A 1.15 1.15 0.0 0 0 656.73 287.03
  Q 655.84 288.12 655.12 289.39
  C 653.82 291.68 650.49 291.88 648.70 290.20
  Q 647.40 288.98 647.01 287.06
  Z
  M 689.18 288.18
  Q 687.07 282.51 690.66 278.55
  C 693.48 275.43 696.53 279.18 698.47 281.01
  A 1.12 1.12 0.0 0 0 700.36 280.12
  Q 700.14 276.59 696.90 275.04
  Q 692.07 272.74 687.86 276.52
  C 684.76 279.31 684.34 285.75 686.08 289.30
  C 687.58 292.37 690.93 295.16 694.56 294.35
  C 697.40 293.71 700.61 291.16 700.74 287.97
  A 1.27 1.27 0.0 0 0 698.59 286.99
  Q 697.39 288.14 696.68 289.62
  A 2.49 2.48 1.9 0 1 695.35 290.86
  Q 690.84 292.64 689.18 288.18
  Z
  M 718.5219 294.4490
  A 10.16 8.46 89.2 0 0 726.8392 284.1719
  A 10.16 8.46 89.2 0 0 718.2381 274.1310
  A 10.16 8.46 89.2 0 0 709.9208 284.4081
  A 10.16 8.46 89.2 0 0 718.5219 294.4490
  Z
  M 742.10 276.29
  Q 741.81 276.79 741.45 276.35
  Q 740.41 275.07 738.68 274.61
  A 1.10 1.10 0.0 0 0 737.29 275.66
  L 737.09 292.33
  Q 737.08 293.83 738.57 293.99
  L 739.00 294.03
  Q 740.67 294.21 740.63 292.53
  Q 740.47 287.24 740.64 282.04
  Q 740.73 279.40 743.47 277.74
  C 746.07 276.18 747.98 278.21 748.13 280.84
  Q 748.44 286.29 748.18 292.86
  A 0.84 0.84 0.0 0 0 749.02 293.74
  L 750.91 293.75
  Q 751.67 293.76 751.64 292.99
  Q 751.40 286.92 751.62 281.56
  Q 751.72 279.05 754.35 277.83
  Q 754.61 277.71 754.88 277.62
  A 3.18 3.17 78.7 0 1 759.07 280.42
  Q 759.45 286.53 758.91 292.45
  Q 758.77 294.02 760.34 293.95
  L 761.27 293.91
  Q 762.60 293.86 762.63 292.53
  Q 762.76 287.16 762.77 282.19
  C 762.77 277.73 761.10 273.64 756.02 274.23
  C 754.14 274.45 753.11 275.74 751.80 276.91
  A 0.96 0.95 45.7 0 1 750.51 276.89
  C 749.46 275.90 748.55 274.43 746.99 274.25
  Q 743.49 273.86 742.10 276.29
  Z
  M 387.89 280.80
  L 390.64 292.52
  A 2.11 2.11 0.0 0 0 394.36 293.34
  Q 395.08 292.41 395.42 291.17
  Q 397.54 283.37 399.62 275.93
  Q 400.05 274.38 398.44 274.47
  L 397.79 274.51
  Q 396.18 274.61 395.92 276.20
  Q 394.97 282.05 393.19 287.28
  Q 392.98 287.88 392.54 288.33
  A 0.31 0.30 -28.4 0 1 392.02 288.18
  Q 390.83 282.56 389.66 276.66
  Q 389.11 273.85 386.28 274.85
  A 1.29 1.28 -5.7 0 0 385.43 275.88
  Q 384.55 281.98 382.46 288.27
  Q 382.09 289.38 381.84 288.24
  Q 380.50 282.20 379.07 276.56
  A 2.94 2.92 -0.1 0 0 376.92 274.43
  Q 376.39 274.30 375.83 274.61
  A 1.05 1.04 68.3 0 0 375.33 275.77
  Q 377.18 283.18 379.84 291.63
  C 380.27 292.98 381.09 294.49 382.82 294.04
  Q 384.46 293.61 384.65 291.96
  Q 385.31 286.03 387.49 280.77
  Q 387.74 280.16 387.89 280.80
  Z
  M 447.79 287.83
  C 445.82 284.38 445.11 280.01 444.32 276.16
  Q 444.01 274.66 442.48 274.54
  L 441.87 274.49
  Q 439.98 274.34 440.52 276.15
  L 445.39 292.74
  A 1.97 1.95 -8.9 0 0 447.34 294.15
  Q 449.28 294.09 449.70 292.23
  Q 450.85 287.00 452.18 281.37
  A 0.37 0.37 0.0 0 1 452.70 281.12
  Q 453.01 281.27 453.10 281.61
  Q 454.61 287.02 455.78 292.30
  Q 456.19 294.15 457.99 294.19
  A 2.24 2.24 0.0 0 0 460.20 292.56
  L 464.94 275.89
  A 1.06 1.06 0.0 0 0 463.83 274.54
  L 463.23 274.59
  Q 461.42 274.76 461.07 276.55
  Q 459.98 282.13 458.22 287.11
  Q 457.60 288.88 457.13 287.06
  Q 456.02 282.85 455.28 278.13
  Q 455.01 276.46 454.08 275.11
  A 1.63 1.62 50.5 0 0 451.60 274.87
  Q 450.57 275.88 450.34 277.43
  Q 449.53 282.86 448.47 287.73
  Q 448.26 288.67 447.79 287.83
  Z
  M 492.49 275.09
  L 490.61 275.09
  A 0.57 0.57 0.0 0 0 490.04 275.67
  L 490.04 275.85
  A 17.93 0.68 89.8 0 0 490.78 293.77
  L 492.44 293.77
  A 17.93 0.68 89.8 0 0 493.06 275.83
  L 493.06 275.65
  A 0.57 0.57 0.0 0 0 492.49 275.09
  Z
  M 634.2826 283.8250
  A 1.19 1.19 0.0 0 0 633.0988 282.6288
  L 625.9389 282.5913
  A 1.19 1.19 0.0 0 0 624.7427 283.7750
  L 624.7374 284.7750
  A 1.19 1.19 0.0 0 0 625.9212 285.9712
  L 633.0811 286.0087
  A 1.19 1.19 0.0 0 0 634.2773 284.8250
  L 634.2826 283.8250
  Z
  M 474.3241 293.7672
  A 1.81 1.68 125.3 0 0 476.7411 293.2608
  A 1.81 1.68 125.3 0 0 476.4159 290.8128
  A 1.81 1.68 125.3 0 0 473.9989 291.3192
  A 1.81 1.68 125.3 0 0 474.3241 293.7672
  Z
  M 673.7988 291.8213
  A 2.05 1.73 -11.5 0 0 671.4451 290.5347
  A 2.05 1.73 -11.5 0 0 669.7812 292.6387
  A 2.05 1.73 -11.5 0 0 672.1349 293.9253
  A 2.05 1.73 -11.5 0 0 673.7988 291.8213
  Z"
/>
<path fill="#c60000" d="
  M 315.89 300.45
  A 1.14 1.14 0.0 0 1 314.75 301.59
  L 21.59 301.59
  A 1.14 1.14 0.0 0 1 20.45 300.45
  L 20.45 25.95
  A 1.14 1.14 0.0 0 1 21.59 24.81
  L 314.75 24.81
  A 1.14 1.14 0.0 0 1 315.89 25.95
  L 315.89 300.45
  Z
  M 62.36 103.23
  L 62.43 117.19
  L 34.75 117.77
  A 0.97 0.97 0.0 0 0 33.80 118.74
  L 33.81 206.01
  A 1.38 1.38 0.0 0 0 35.19 207.39
  L 108.11 207.56
  Q 100.54 215.85 92.21 221.99
  Q 89.79 221.52 87.21 221.68
  Q 84.35 221.86 82.14 221.89
  Q 60.26 222.15 34.97 222.11
  Q 33.79 222.11 33.79 223.29
  L 33.87 284.30
  Q 33.87 285.98 35.55 285.98
  L 89.75 286.05
  Q 91.23 286.05 91.24 284.56
  L 91.45 254.42
  Q 91.83 255.73 91.99 255.65
  Q 93.56 254.83 95.29 254.55
  Q 96.27 254.39 98.71 254.64
  Q 101.46 254.93 103.98 254.52
  L 104.29 284.56
  A 1.49 1.49 0.0 0 0 105.78 286.04
  L 160.56 286.08
  A 1.23 1.22 -89.8 0 0 161.78 284.86
  L 161.99 255.30
  Q 165.50 254.36 166.75 254.34
  Q 168.87 254.30 173.50 254.92
  Q 174.00 254.99 174.45 254.60
  L 174.88 284.63
  Q 174.91 286.11 176.39 286.11
  L 231.41 286.04
  A 0.69 0.69 0.0 0 0 232.10 285.36
  L 232.55 254.42
  Q 232.77 254.71 233.05 254.89
  Q 233.48 255.18 233.97 255.03
  Q 238.54 253.56 243.25 254.96
  Q 243.84 255.13 244.93 254.76
  L 245.43 284.96
  A 1.13 1.13 0.0 0 0 246.56 286.07
  L 301.25 286.06
  A 1.55 1.54 90.0 0 0 302.79 284.51
  L 302.86 222.98
  A 0.99 0.99 0.0 0 0 301.88 221.99
  L 274.26 221.72
  L 274.40 207.89
  Q 288.09 207.09 301.57 207.79
  A 1.05 1.05 0.0 0 0 302.67 206.85
  Q 302.85 204.93 302.86 202.75
  Q 302.91 163.18 302.88 118.79
  A 1.17 1.17 0.0 0 0 301.72 117.63
  L 229.60 117.36
  Q 237.04 109.16 241.25 106.03
  Q 244.28 103.78 244.90 103.00
  L 301.90 103.02
  A 0.91 0.90 -83.6 0 0 302.78 102.31
  Q 302.96 101.51 302.95 100.69
  Q 302.83 71.68 302.75 40.12
  Q 302.75 39.10 301.73 39.10
  L 246.58 39.00
  A 1.13 1.13 0.0 0 0 245.45 40.12
  L 245.14 71.11
  L 232.52 71.22
  L 232.29 39.82
  A 0.79 0.79 0.0 0 0 231.50 39.03
  L 176.24 39.02
  A 1.47 1.47 0.0 0 0 174.77 40.48
  L 174.55 71.16
  L 162.05 71.16
  L 161.73 40.19
  A 1.19 1.18 89.5 0 0 160.55 39.02
  L 105.73 39.07
  A 1.36 1.36 0.0 0 0 104.37 40.42
  L 104.17 71.15
  L 91.57 71.22
  L 91.22 40.70
  A 1.54 1.54 0.0 0 0 89.68 39.17
  L 34.95 39.22
  A 1.09 1.08 0.0 0 0 33.86 40.30
  L 33.80 101.49
  A 1.33 1.33 0.0 0 0 35.11 102.82
  L 62.36 103.23
  Z"
/>
<path fill="#ffffff" d="
  M 91.57 71.22
  L 63.51 71.04
  Q 62.30 71.04 62.30 72.24
  L 62.36 103.23
  L 35.11 102.82
  A 1.33 1.33 0.0 0 1 33.80 101.49
  L 33.86 40.30
  A 1.09 1.08 0.0 0 1 34.95 39.22
  L 89.68 39.17
  A 1.54 1.54 0.0 0 1 91.22 40.70
  L 91.57 71.22
  Z"
/>
<path fill="#ffffff" d="
  M 162.05 71.16
  L 104.17 71.15
  L 104.37 40.42
  A 1.36 1.36 0.0 0 1 105.73 39.07
  L 160.55 39.02
  A 1.19 1.18 89.5 0 1 161.73 40.19
  L 162.05 71.16
  Z"
/>
<path fill="#ffffff" d="
  M 232.52 71.22
  L 174.55 71.16
  L 174.77 40.48
  A 1.47 1.47 0.0 0 1 176.24 39.02
  L 231.50 39.03
  A 0.79 0.79 0.0 0 1 232.29 39.82
  L 232.52 71.22
  Z"
/>
<path fill="#ffffff" d="
  M 244.90 103.00
  Q 260.60 88.83 276.02 75.78
  Q 278.00 74.11 279.46 71.82
  A 0.81 0.80 -77.8 0 0 278.67 70.59
  Q 273.76 71.25 268.75 71.27
  Q 256.98 71.34 245.14 71.11
  L 245.45 40.12
  A 1.13 1.13 0.0 0 1 246.58 39.00
  L 301.73 39.10
  Q 302.75 39.10 302.75 40.12
  Q 302.83 71.68 302.95 100.69
  Q 302.96 101.51 302.78 102.31
  A 0.91 0.90 -83.6 0 1 301.90 103.02
  L 244.90 103.00
  Z"
/>
<path fill="#000000" d="
  M 1085.48 89.39
  C 1073.66 114.44 1081.20 146.21 1105.90 161.18
  C 1121.44 170.60 1139.79 169.50 1154.81 159.58
  C 1157.85 157.57 1160.92 155.65 1162.99 152.58
  A 0.88 0.88 0.0 0 1 1164.38 152.51
  L 1170.21 159.31
  A 1.95 1.95 0.0 0 1 1170.09 161.98
  Q 1163.52 168.32 1155.36 172.69
  C 1135.57 183.31 1111.92 181.76 1093.75 168.19
  Q 1075.46 154.51 1070.15 131.62
  C 1062.52 98.74 1076.69 64.05 1109.62 52.33
  C 1125.77 46.58 1141.98 48.41 1157.17 56.68
  C 1161.59 59.09 1165.53 62.44 1169.60 65.56
  A 2.22 2.22 0.0 0 1 1170.16 68.46
  Q 1167.62 72.73 1164.24 76.39
  Q 1163.84 76.83 1163.42 76.39
  Q 1148.29 60.32 1126.52 61.20
  Q 1115.84 61.63 1107.21 66.45
  Q 1092.39 74.73 1085.48 89.39
  Z"
/>
<rect fill="#000000" x="378.16" y="49.33" width="11.60" height="129.60" rx="1.51"/>
<path fill="#000000" d="
  M 431.51 71.22
  Q 430.52 69.65 430.52 71.51
  L 430.52 177.88
  A 1.15 1.15 0.0 0 1 429.37 179.03
  L 420.20 179.02
  A 1.32 1.32 0.0 0 1 418.88 177.70
  L 418.85 50.36
  A 1.03 1.03 0.0 0 1 419.89 49.33
  L 430.33 49.39
  A 1.92 1.91 73.0 0 1 431.92 50.24
  Q 448.64 75.12 465.62 101.00
  Q 471.27 109.60 476.73 117.66
  Q 490.26 137.61 503.05 157.72
  A 0.48 0.48 0.0 0 0 503.89 157.67
  Q 504.07 157.29 504.07 156.85
  Q 503.90 108.03 503.99 50.52
  Q 503.99 49.25 505.26 49.26
  L 514.61 49.35
  A 0.76 0.76 0.0 0 1 515.37 50.11
  L 515.37 178.00
  A 1.06 0.96 90.0 0 1 514.41 179.06
  L 503.96 179.01
  Q 502.89 179.00 502.29 178.11
  Q 474.80 137.05 447.52 95.90
  Q 439.00 83.04 431.51 71.22
  Z"
/>
<path fill="#000000" d="
  M 584.54 165.38
  Q 585.13 166.18 585.46 165.25
  L 626.28 50.59
  A 1.78 1.77 9.2 0 1 627.93 49.41
  L 637.77 49.27
  A 0.93 0.93 0.0 0 1 638.66 50.53
  Q 615.45 113.25 592.87 175.06
  Q 592.27 176.70 591.49 178.21
  A 1.65 1.64 -75.7 0 1 590.02 179.09
  L 579.49 179.01
  A 1.58 1.57 81.2 0 1 578.01 177.92
  C 575.39 169.84 571.79 161.05 569.41 154.34
  Q 562.54 134.91 555.16 115.15
  C 547.49 94.58 539.42 71.05 532.93 54.75
  Q 531.97 52.33 531.78 49.99
  A 0.66 0.65 -2.4 0 1 532.44 49.28
  L 542.37 49.30
  A 1.83 1.81 -10.5 0 1 544.05 50.44
  C 546.50 56.61 548.61 62.86 550.90 69.11
  Q 553.84 77.14 556.39 84.45
  C 565.08 109.44 574.54 135.93 583.69 162.21
  Q 583.97 163.02 584.04 163.93
  Q 584.11 164.80 584.54 165.38
  Z"
/>
<path fill="#000000" d="
  M 666.58 62.23
  L 666.58 107.05
  A 0.73 0.72 -90.0 0 0 667.30 107.78
  L 724.80 107.73
  A 1.34 1.33 -1.6 0 1 726.14 108.99
  Q 726.37 113.46 726.15 118.21
  Q 726.10 119.13 725.17 119.13
  L 667.26 118.99
  A 0.75 0.75 0.0 0 0 666.51 119.74
  L 666.61 166.50
  A 0.73 0.73 0.0 0 0 667.33 167.23
  Q 669.84 167.28 672.02 167.30
  Q 703.78 167.62 734.22 167.46
  A 1.27 1.26 89.5 0 1 735.49 168.72
  L 735.50 178.05
  A 0.84 0.84 0.0 0 1 734.66 178.89
  L 656.27 178.93
  A 1.42 1.42 0.0 0 1 654.85 177.51
  L 654.81 50.45
  A 0.99 0.99 0.0 0 1 655.80 49.46
  L 731.89 49.52
  A 1.61 1.61 0.0 0 1 733.50 51.14
  L 733.48 60.34
  A 1.19 1.19 0.0 0 1 732.29 61.52
  L 667.27 61.54
  Q 666.58 61.54 666.58 62.23
  Z"
/>
<path fill="#000000" d="
  M 769.46 70.57
  Q 769.28 70.76 769.28 71.03
  Q 769.46 122.93 769.43 178.05
  A 1.02 1.02 0.0 0 1 768.40 179.07
  L 758.52 178.99
  Q 757.95 178.99 757.79 178.44
  Q 757.55 177.61 757.55 176.68
  Q 757.57 115.51 757.50 50.45
  A 1.25 1.24 2.3 0 1 758.85 49.21
  Q 764.02 49.66 769.12 49.20
  A 1.62 1.60 70.5 0 1 770.59 49.91
  Q 806.18 103.24 842.00 157.50
  Q 842.30 157.96 842.85 158.00
  A 0.41 0.41 0.0 0 0 843.29 157.56
  Q 842.93 151.28 842.91 146.65
  Q 842.74 106.10 842.76 57.06
  Q 842.76 53.47 842.94 50.23
  A 0.66 0.65 88.5 0 1 843.52 49.61
  Q 847.92 49.07 852.85 49.40
  Q 854.16 49.49 854.20 50.81
  Q 854.32 54.73 854.33 58.30
  Q 854.40 120.11 854.37 177.96
  Q 854.37 179.07 853.27 179.07
  L 843.42 179.07
  A 3.17 3.16 73.2 0 1 840.78 177.65
  L 769.62 70.59
  A 0.11 0.11 0.0 0 0 769.46 70.57
  Z"
/>
<path fill="#000000" d="
  M 876.26 60.53
  L 876.36 50.59
  A 1.07 1.07 0.0 0 1 877.43 49.53
  L 964.56 49.43
  A 1.07 1.07 0.0 0 1 965.63 50.49
  L 965.73 60.58
  A 1.07 1.07 0.0 0 1 964.65 61.66
  L 927.80 61.49
  A 1.07 1.07 0.0 0 0 926.72 62.57
  L 926.74 177.96
  A 1.07 1.07 0.0 0 1 925.68 179.03
  L 916.18 179.07
  A 1.07 1.07 0.0 0 1 915.10 178.00
  L 915.09 62.58
  A 1.07 1.07 0.0 0 0 914.02 61.51
  L 877.33 61.61
  A 1.07 1.07 0.0 0 1 876.26 60.53
  Z"
/>
<path fill="#000000" d="
  M 244.90 103.00
  Q 244.28 103.78 241.25 106.03
  Q 237.04 109.16 229.60 117.36
  Q 225.10 120.13 221.47 124.57
  Q 217.76 126.76 216.55 128.05
  Q 212.94 131.84 209.09 134.92
  C 205.03 138.50 200.85 142.67 197.20 145.91
  Q 167.81 171.99 138.64 198.31
  C 136.13 200.57 131.53 203.95 128.51 207.58
  Q 121.53 212.95 115.22 219.24
  Q 114.75 219.70 113.66 221.94
  Q 112.39 221.53 111.44 222.41
  Q 103.27 229.99 94.81 237.31
  Q 93.64 238.32 92.88 239.57
  A 0.69 0.69 0.0 0 0 93.47 240.62
  L 161.91 240.38
  L 174.56 240.31
  L 232.64 240.34
  L 245.11 240.19
  L 260.91 240.42
  A 0.69 0.69 0.0 0 0 261.61 239.73
  Q 261.57 231.60 261.62 223.04
  A 2.19 2.11 -66.0 0 0 261.10 221.60
  Q 260.96 221.44 260.00 221.78
  Q 261.53 219.18 261.61 216.99
  Q 261.78 212.39 261.54 207.72
  L 261.45 176.44
  A 1.17 1.17 0.0 0 1 262.72 175.27
  Q 268.08 175.71 273.27 175.23
  A 0.87 0.87 0.0 0 1 274.22 176.10
  L 274.40 207.89
  L 274.26 221.72
  L 274.40 253.28
  Q 274.40 254.66 273.03 254.66
  L 244.93 254.76
  Q 243.84 255.13 243.25 254.96
  Q 238.54 253.56 233.97 255.03
  Q 233.48 255.18 233.05 254.89
  Q 232.77 254.71 232.55 254.42
  L 174.45 254.60
  Q 174.00 254.99 173.50 254.92
  Q 168.87 254.30 166.75 254.34
  Q 165.50 254.36 161.99 255.30
  Q 162.80 254.44 161.75 254.44
  Q 132.83 254.51 103.98 254.52
  Q 101.46 254.93 98.71 254.64
  Q 96.27 254.39 95.29 254.55
  Q 93.56 254.83 91.99 255.65
  Q 91.83 255.73 91.45 254.42
  Q 79.06 254.53 66.32 254.51
  C 63.58 254.51 60.82 254.86 58.08 255.01
  A 0.85 0.85 0.0 0 1 57.32 253.70
  Q 58.34 252.14 59.69 250.94
  Q 75.75 236.75 92.21 221.99
  Q 100.54 215.85 108.11 207.56
  L 114.77 201.47
  L 127.76 190.20
  L 208.86 117.62
  L 225.17 103.03
  L 243.81 86.08
  A 0.56 0.56 0.0 0 0 243.43 85.10
  L 174.54 85.23
  Q 171.02 85.63 167.49 85.16
  Q 166.31 85.01 164.25 85.61
  Q 163.00 85.97 162.08 85.27
  L 103.98 85.33
  L 91.70 85.34
  L 75.81 85.27
  Q 75.24 85.27 75.24 85.83
  Q 75.16 93.93 75.20 102.33
  Q 75.20 102.76 75.45 103.10
  Q 75.87 103.68 76.43 103.19
  Q 76.57 104.61 76.42 104.59
  A 1.02 1.02 0.0 0 0 75.24 105.63
  Q 75.43 112.18 75.19 117.53
  L 75.29 148.96
  A 0.83 0.82 0.0 0 1 74.46 149.78
  L 63.46 149.73
  A 1.00 0.99 90.0 0 1 62.47 148.73
  L 62.43 117.19
  L 62.36 103.23
  L 62.30 72.24
  Q 62.30 71.04 63.51 71.04
  L 91.57 71.22
  L 104.17 71.15
  L 162.05 71.16
  L 174.55 71.16
  L 232.52 71.22
  L 245.14 71.11
  Q 256.98 71.34 268.75 71.27
  Q 273.76 71.25 278.67 70.59
  A 0.81 0.80 -77.8 0 1 279.46 71.82
  Q 278.00 74.11 276.02 75.78
  Q 260.60 88.83 244.90 103.00
  Z"
/>
<path fill="#c60000" d="
  M 174.54 85.23
  L 174.70 101.08
  Q 174.72 103.01 176.64 103.01
  L 225.17 103.03
  L 208.86 117.62
  L 128.81 117.79
  Q 127.77 117.79 127.77 118.83
  L 127.76 190.20
  L 114.77 201.47
  L 114.73 118.68
  A 1.04 1.03 90.0 0 0 113.70 117.64
  L 75.19 117.53
  Q 75.43 112.18 75.24 105.63
  A 1.02 1.02 0.0 0 1 76.42 104.59
  Q 76.57 104.61 76.43 103.19
  L 89.61 103.06
  A 1.84 1.84 0.0 0 0 91.43 101.25
  L 91.70 85.34
  L 103.98 85.33
  L 104.23 101.35
  Q 104.25 102.86 105.76 102.87
  L 160.79 103.00
  A 1.10 1.09 0.3 0 0 161.89 101.92
  L 162.08 85.27
  Q 163.00 85.97 164.25 85.61
  Q 166.31 85.01 167.49 85.16
  Q 171.02 85.63 174.54 85.23
  Z"
/>
<path fill="#ffffff" d="
  M 225.17 103.03
  L 176.64 103.01
  Q 174.72 103.01 174.70 101.08
  L 174.54 85.23
  L 243.43 85.10
  A 0.56 0.56 0.0 0 1 243.81 86.08
  L 225.17 103.03
  Z"
/>
<path fill="#ffffff" d="
  M 91.70 85.34
  L 91.43 101.25
  A 1.84 1.84 0.0 0 1 89.61 103.06
  L 76.43 103.19
  Q 75.87 103.68 75.45 103.10
  Q 75.20 102.76 75.20 102.33
  Q 75.16 93.93 75.24 85.83
  Q 75.24 85.27 75.81 85.27
  L 91.70 85.34
  Z"
/>
<path fill="#ffffff" d="
  M 103.98 85.33
  L 162.08 85.27
  L 161.89 101.92
  A 1.10 1.09 0.3 0 1 160.79 103.00
  L 105.76 102.87
  Q 104.25 102.86 104.23 101.35
  L 103.98 85.33
  Z"
/>
<rect fill="#000000" x="994.11" y="113.67" width="38.62" height="8.48" rx="1.63"/>
<path fill="#ffffff" d="
  M 62.43 117.19
  L 62.47 148.73
  A 1.00 0.99 -90.0 0 0 63.46 149.73
  L 74.46 149.78
  A 0.83 0.82 0.0 0 0 75.29 148.96
  L 75.19 117.53
  L 113.70 117.64
  A 1.04 1.03 90.0 0 1 114.73 118.68
  L 114.77 201.47
  L 108.11 207.56
  L 35.19 207.39
  A 1.38 1.38 0.0 0 1 33.81 206.01
  L 33.80 118.74
  A 0.97 0.97 0.0 0 1 34.75 117.77
  L 62.43 117.19
  Z"
/>
<path fill="#ffffff" d="
  M 208.86 117.62
  L 127.76 190.20
  L 127.77 118.83
  Q 127.77 117.79 128.81 117.79
  L 208.86 117.62
  Z"
/>
<path fill="#ffffff" d="
  M 229.60 117.36
  L 301.72 117.63
  A 1.17 1.17 0.0 0 1 302.88 118.79
  Q 302.91 163.18 302.86 202.75
  Q 302.85 204.93 302.67 206.85
  A 1.05 1.05 0.0 0 1 301.57 207.79
  Q 288.09 207.09 274.40 207.89
  L 274.22 176.10
  A 0.87 0.87 0.0 0 0 273.27 175.23
  Q 268.08 175.71 262.72 175.27
  A 1.17 1.17 0.0 0 0 261.45 176.44
  L 261.54 207.72
  L 222.56 207.59
  A 0.80 0.80 0.0 0 1 221.76 206.79
  L 221.47 124.57
  Q 225.10 120.13 229.60 117.36
  Z"
/>
<path fill="#c60000" d="
  M 221.47 124.57
  L 221.76 206.79
  A 0.80 0.80 0.0 0 0 222.56 207.59
  L 261.54 207.72
  Q 261.78 212.39 261.61 216.99
  Q 261.53 219.18 260.00 221.78
  L 246.86 221.97
  Q 245.29 221.99 245.28 223.56
  L 245.11 240.19
  L 232.64 240.34
  L 232.56 223.28
  Q 232.55 221.98 231.26 221.98
  L 175.81 222.01
  A 1.05 1.04 -89.7 0 0 174.77 223.05
  L 174.56 240.31
  L 161.91 240.38
  L 161.74 222.80
  Q 161.73 222.00 160.94 222.00
  L 113.66 221.94
  Q 114.75 219.70 115.22 219.24
  Q 121.53 212.95 128.51 207.58
  L 207.74 207.63
  Q 208.85 207.63 208.85 206.53
  L 209.09 134.92
  Q 212.94 131.84 216.55 128.05
  Q 217.76 126.76 221.47 124.57
  Z"
/>
<path fill="#ffffff" d="
  M 209.09 134.92
  L 208.85 206.53
  Q 208.85 207.63 207.74 207.63
  L 128.51 207.58
  C 131.53 203.95 136.13 200.57 138.64 198.31
  Q 167.81 171.99 197.20 145.91
  C 200.85 142.67 205.03 138.50 209.09 134.92
  Z"
/>
<path fill="#a90403" d="
  M 706.78 222.03
  L 708.84 224.85
  Q 709.99 226.42 711.01 224.77
  Q 712.23 222.78 713.75 222.72
  A 1.58 1.57 1.4 0 1 715.39 224.44
  Q 715.14 227.02 713.65 229.02
  A 1.92 1.91 -47.5 0 0 713.75 231.43
  C 715.16 233.01 717.81 234.64 716.78 237.23
  A 1.92 1.92 0.0 0 1 713.53 237.76
  L 711.18 234.99
  A 0.81 0.80 47.1 0 0 709.98 234.94
  C 706.58 238.37 702.13 240.69 697.77 236.95
  C 691.30 231.39 692.70 224.64 699.24 220.14
  A 1.27 1.27 0.0 0 0 699.56 218.36
  Q 698.46 216.78 697.64 215.03
  C 695.91 211.32 698.65 207.70 701.80 205.91
  C 706.98 202.95 713.48 210.87 710.13 215.64
  Q 708.80 217.54 706.99 219.35
  Q 705.73 220.60 706.78 222.03
  Z
  M 703.9247 216.7179
  A 3.78 2.81 91.9 0 0 706.8585 213.0332
  A 3.78 2.81 91.9 0 0 704.1753 209.1621
  A 3.78 2.81 91.9 0 0 701.2415 212.8468
  A 3.78 2.81 91.9 0 0 703.9247 216.7179
  Z
  M 708.12 230.61
  L 703.02 223.53
  A 1.02 1.02 0.0 0 0 701.60 223.30
  L 700.13 224.36
  A 5.41 4.93 -35.8 0 0 698.63 231.53
  L 699.15 232.26
  A 5.41 4.93 -35.8 0 0 706.42 233.09
  L 707.89 232.03
  A 1.02 1.02 0.0 0 0 708.12 230.61
  Z"
/>
<path fill="#a90403" d="
  M 771.02 227.95
  C 772.16 231.68 775.25 234.80 779.48 234.34
  C 783.44 233.90 785.07 230.45 786.68 227.28
  A 1.75 1.75 0.0 0 1 789.85 227.39
  C 790.87 229.77 789.33 232.27 787.87 234.10
  C 781.91 241.61 771.94 239.90 767.79 231.47
  C 763.70 223.13 764.86 209.18 775.67 205.73
  Q 781.64 203.82 786.38 208.27
  C 788.24 210.02 790.28 212.39 789.64 215.16
  A 1.55 1.55 0.0 0 1 786.92 215.79
  C 784.15 212.35 781.08 207.72 775.74 210.44
  C 769.50 213.61 769.23 222.10 771.02 227.95
  Z"
/>
<path fill="#a90403" d="
  M 378.48 209.87
  L 378.44 206.90
  A 0.96 0.96 0.0 0 1 379.40 205.92
  L 399.37 206.03
  A 0.96 0.96 0.0 0 1 400.33 206.93
  L 400.46 209.49
  A 0.96 0.96 0.0 0 1 399.49 210.50
  L 392.52 210.35
  A 0.96 0.96 0.0 0 0 391.54 211.31
  L 391.43 237.12
  A 0.96 0.96 0.0 0 1 390.49 238.08
  L 388.23 238.12
  A 0.96 0.96 0.0 0 1 387.26 237.16
  L 387.16 211.42
  A 0.96 0.96 0.0 0 0 386.15 210.46
  L 379.49 210.82
  A 0.96 0.96 0.0 0 1 378.48 209.87
  Z"
/>
<path fill="#c60000" d="
  M 970.75 206.35
  A 0.25 0.25 0.0 0 1 971.00 206.10
  L 971.96 206.11
  A 7.98 1.99 -89.7 0 1 973.91 214.10
  L 973.83 230.30
  A 7.98 1.99 -89.7 0 1 971.80 238.27
  L 970.84 238.26
  A 0.25 0.25 0.0 0 1 970.59 238.01
  L 970.75 206.35
  Z"
/>
<rect fill="#c60000" x="-1.31" y="-2.42" transform="translate(494.89,208.59) rotate(-1.0)" width="2.62" height="4.84" rx="1.05"/>
<ellipse fill="#c60000" cx="0.00" cy="0.00" transform="translate(561.89,208.80) rotate(93.9)" rx="2.79" ry="1.25"/>
<path fill="#a90403" d="
  M 1002.26 231.53
  A 3.23 3.22 -78.5 0 0 1004.02 234.20
  Q 1005.22 234.81 1005.72 236.08
  A 1.78 1.78 0.0 0 1 1004.46 238.47
  C 999.49 239.59 997.87 235.45 997.80 231.26
  Q 997.73 226.46 997.76 221.93
  C 997.78 219.44 995.52 217.85 996.39 215.52
  Q 997.60 212.26 998.56 209.05
  Q 999.12 207.19 1001.08 207.29
  Q 1001.66 207.32 1001.73 207.90
  C 1002.04 210.70 1001.69 213.68 1004.47 215.29
  A 1.52 1.52 0.0 0 1 1004.63 217.80
  C 1003.43 218.72 1001.99 219.54 1001.99 221.28
  Q 1001.98 227.38 1002.26 231.53
  Z"
/>
<ellipse fill="#ffffff" cx="0.00" cy="0.00" transform="translate(704.05,212.94) rotate(91.9)" rx="3.78" ry="2.81"/>
<path fill="#a90403" d="
  M 638.77 236.53
  C 635.65 237.82 633.27 239.53 630.11 236.80
  Q 623.19 230.82 625.98 221.27
  C 627.02 217.68 632.15 211.70 636.56 214.58
  Q 639.14 216.26 642.31 214.70
  A 0.89 0.89 0.0 0 1 643.59 215.47
  Q 643.90 225.13 643.56 237.76
  Q 643.46 241.27 641.98 243.38
  C 639.28 247.21 634.04 248.98 629.85 246.41
  Q 626.03 244.07 626.16 240.35
  A 1.06 1.06 0.0 0 1 627.47 239.35
  C 629.75 239.90 630.95 241.75 632.66 243.16
  Q 633.18 243.60 633.85 243.59
  C 637.24 243.52 639.85 240.46 639.63 237.07
  Q 639.58 236.20 638.77 236.53
  Z
  M 634.6800 234.1700
  A 8.00 5.14 90.0 0 0 639.8200 226.1700
  A 8.00 5.14 90.0 0 0 634.6800 218.1700
  A 8.00 5.14 90.0 0 0 629.5400 226.1700
  A 8.00 5.14 90.0 0 0 634.6800 234.1700
  Z"
/>
<path fill="#a90403" d="
  M 821.4135 238.8099
  A 12.46 9.95 89.8 0 1 811.4201 226.3847
  A 12.46 9.95 89.8 0 1 821.3265 213.8901
  A 12.46 9.95 89.8 0 1 831.3199 226.3153
  A 12.46 9.95 89.8 0 1 821.4135 238.8099
  Z
  M 821.3445 234.6600
  A 8.29 5.60 89.9 0 0 826.9300 226.3602
  A 8.29 5.60 89.9 0 0 821.3155 218.0800
  A 8.29 5.60 89.9 0 0 815.7300 226.3798
  A 8.29 5.60 89.9 0 0 821.3445 234.6600
  Z"
/>
<path fill="#a90403" d="
  M 902.11 219.18
  C 900.18 217.23 896.99 217.21 895.94 220.20
  A 2.02 2.02 0.0 0 0 897.28 222.80
  Q 900.50 223.75 903.54 224.97
  C 915.00 229.57 904.03 243.02 895.45 237.71
  C 893.54 236.52 890.91 233.90 891.26 231.48
  A 1.69 1.69 0.0 0 1 894.10 230.50
  C 896.60 232.87 897.67 235.91 901.91 234.31
  C 904.99 233.14 904.83 229.85 901.77 228.98
  C 897.92 227.88 895.82 227.69 892.80 224.28
  Q 889.81 220.91 892.86 217.31
  Q 897.68 211.62 903.74 215.05
  Q 904.71 215.60 905.48 216.40
  Q 907.42 218.43 907.24 220.36
  Q 907.02 222.60 905.06 221.49
  Q 903.53 220.62 902.11 219.18
  Z"
/>
<path fill="#a90403" d="
  M 1037.38 223.58
  A 2.12 2.12 0.0 0 0 1038.74 220.65
  Q 1037.38 217.68 1034.18 218.00
  C 1031.15 218.31 1029.44 223.21 1026.51 222.08
  A 0.92 0.91 13.0 0 1 1025.93 221.16
  C 1026.61 211.56 1043.81 211.24 1043.23 221.69
  Q 1042.78 229.79 1043.78 237.62
  A 0.90 0.90 0.0 0 1 1042.43 238.50
  L 1040.01 237.06
  A 2.61 2.61 0.0 0 0 1037.25 237.12
  Q 1030.43 241.56 1026.00 235.00
  C 1024.71 233.10 1024.65 230.36 1025.99 228.43
  C 1029.21 223.78 1032.72 224.87 1037.38 223.58
  Z
  M 1037.05 227.25
  L 1029.82 229.63
  A 1.25 1.25 0.0 0 0 1029.02 231.21
  L 1029.07 231.38
  A 4.92 4.75 -18.2 0 0 1035.23 234.36
  L 1035.50 234.27
  A 4.92 4.75 -18.2 0 0 1038.69 228.22
  L 1038.63 228.05
  A 1.25 1.25 0.0 0 0 1037.05 227.25
  Z"
/>
<path fill="#a90403" d="
  M 1075.70 218.55
  C 1071.09 218.25 1070.23 222.34 1070.26 226.00
  Q 1070.32 231.26 1070.27 236.46
  Q 1070.25 238.20 1068.50 238.23
  L 1067.94 238.24
  Q 1066.12 238.26 1066.13 236.44
  L 1066.23 215.27
  A 0.75 0.74 -74.6 0 1 1067.35 214.63
  C 1068.69 215.41 1070.09 216.11 1071.67 215.40
  C 1073.93 214.39 1075.84 213.23 1078.41 214.35
  C 1082.21 216.01 1083.39 219.45 1083.31 223.50
  Q 1083.17 230.37 1083.29 236.54
  Q 1083.32 238.41 1081.46 238.20
  L 1080.45 238.08
  Q 1078.91 237.90 1078.94 236.35
  Q 1079.08 229.36 1079.08 222.95
  C 1079.08 220.94 1078.00 218.70 1075.70 218.55
  Z"
/>
<path fill="#a90403" d="
  M 1116.62 219.12
  C 1114.01 216.70 1110.76 219.58 1109.91 222.16
  C 1108.58 226.18 1108.88 232.93 1113.72 234.55
  C 1116.44 235.46 1118.31 231.84 1119.28 229.99
  A 1.98 1.98 0.0 0 1 1123.00 230.73
  C 1123.16 232.59 1121.56 234.91 1120.04 236.36
  C 1113.45 242.71 1106.17 236.08 1105.15 229.06
  C 1104.39 223.83 1105.51 218.62 1110.00 215.39
  C 1114.51 212.14 1119.77 214.37 1122.07 218.90
  Q 1122.80 220.35 1122.33 221.86
  A 1.40 1.40 0.0 0 1 1119.99 222.41
  Q 1118.33 220.71 1116.62 219.12
  Z"
/>
<path fill="#a90403" d="
  M 465.26 222.95
  Q 466.19 219.27 462.48 218.14
  C 459.22 217.15 457.31 220.23 455.17 221.95
  A 1.65 1.64 74.2 0 1 452.51 220.46
  C 453.20 215.02 460.24 213.11 464.63 214.38
  C 468.76 215.58 469.94 218.99 469.77 223.05
  Q 469.43 230.95 470.36 237.62
  A 0.78 0.77 -84.9 0 1 469.35 238.47
  Q 467.86 237.97 466.66 237.01
  A 2.05 2.05 0.0 0 0 464.28 236.87
  Q 456.63 241.73 452.38 234.64
  C 451.33 232.88 451.31 230.50 452.38 228.73
  C 455.18 224.10 459.80 224.43 464.50 223.65
  Q 465.11 223.54 465.26 222.95
  Z
  M 464.92 227.19
  C 462.72 227.58 459.09 228.05 457.23 229.39
  C 454.29 231.48 457.17 235.30 460.28 234.78
  Q 465.70 233.87 465.71 227.85
  A 0.68 0.67 -4.7 0 0 464.92 227.19
  Z"
/>
<path fill="#a90403" d="
  M 532.72 222.31
  C 532.57 219.49 531.11 218.15 528.32 218.45
  Q 524.26 218.89 524.25 223.63
  Q 524.24 230.31 524.15 236.66
  A 1.37 1.36 -89.2 0 1 522.77 238.01
  L 521.23 237.98
  Q 519.75 237.96 519.76 236.48
  L 519.94 215.74
  A 0.99 0.99 0.0 0 1 521.36 214.85
  C 522.45 215.37 523.61 216.07 524.84 215.61
  Q 526.74 214.90 528.67 214.29
  C 533.27 212.83 536.76 217.92 536.91 221.87
  Q 537.18 228.85 536.90 236.70
  Q 536.85 238.08 535.48 238.02
  L 534.06 237.96
  Q 532.64 237.89 532.73 236.47
  Q 533.13 230.07 532.72 222.31
  Z"
/>
<path fill="#a90403" d="
  M 596.29 218.44
  C 591.74 218.13 590.66 222.10 590.74 225.69
  Q 590.87 231.31 590.77 236.78
  Q 590.75 238.10 589.42 238.11
  L 588.30 238.12
  Q 586.71 238.14 586.72 236.55
  L 586.77 215.29
  A 0.69 0.69 0.0 0 1 587.86 214.72
  C 591.78 217.47 594.29 213.21 598.15 214.19
  C 601.91 215.15 603.85 218.65 603.81 222.47
  Q 603.73 230.31 603.75 236.57
  Q 603.75 238.27 602.06 238.23
  Q 601.87 238.23 601.68 238.23
  A 2.10 2.09 -90.0 0 1 599.51 236.05
  Q 599.81 228.48 599.67 222.86
  C 599.62 220.89 598.57 218.60 596.29 218.44
  Z"
/>
<path fill="#a90403" d="
  M 865.68 223.26
  C 865.65 219.54 863.22 217.44 859.49 218.91
  C 857.37 219.75 856.83 223.24 856.83 225.17
  Q 856.83 230.70 856.87 236.56
  Q 856.88 238.13 855.31 238.16
  Q 855.02 238.16 854.73 238.16
  Q 852.79 238.17 852.81 236.23
  L 853.04 215.05
  A 0.46 0.45 -76.8 0 1 853.69 214.64
  C 854.99 215.24 856.41 216.02 857.87 215.48
  C 859.89 214.74 862.56 213.39 864.68 214.30
  Q 869.63 216.42 869.73 222.09
  Q 869.86 229.16 869.69 236.67
  A 1.60 1.60 0.0 0 1 868.07 238.24
  L 867.57 238.24
  Q 865.67 238.22 865.68 236.32
  Q 865.73 229.39 865.68 223.26
  Z"
/>
<path fill="#a90403" d="
  M 431.86 218.97
  C 427.03 218.78 425.89 220.65 425.87 225.16
  Q 425.85 231.04 425.78 236.75
  Q 425.76 238.27 424.24 238.27
  Q 424.08 238.27 423.92 238.27
  Q 421.94 238.25 421.92 236.27
  L 421.77 215.51
  A 0.61 0.61 0.0 0 1 422.60 214.94
  Q 425.67 216.14 429.38 214.25
  A 2.30 2.29 70.9 0 1 432.68 215.86
  Q 432.90 217.02 432.65 218.34
  A 0.78 0.78 0.0 0 1 431.86 218.97
  Z"
/>
<path fill="#a90403" d="
  M 1151.16 230.10
  Q 1152.01 231.10 1152.36 229.83
  Q 1153.77 224.66 1155.05 220.05
  C 1155.61 218.00 1156.96 213.82 1159.81 214.38
  A 1.52 1.52 0.0 0 1 1160.95 216.41
  Q 1156.43 228.58 1152.82 240.19
  C 1151.91 243.13 1149.03 248.67 1145.06 247.38
  A 1.05 1.04 -4.9 0 1 1144.44 246.86
  Q 1143.61 245.31 1143.40 243.50
  Q 1143.33 242.87 1143.96 242.86
  C 1149.12 242.80 1150.14 238.41 1148.61 234.28
  Q 1145.45 225.79 1142.46 216.52
  Q 1141.83 214.57 1143.87 214.38
  Q 1144.05 214.36 1144.21 214.39
  A 3.36 3.35 -5.4 0 1 1146.97 216.67
  Q 1149.02 222.92 1150.85 229.52
  Q 1150.94 229.85 1151.16 230.10
  Z"
/>
<rect fill="#c60000" x="-1.36" y="-11.39" transform="translate(561.97,226.30) rotate(-0.3)" width="2.72" height="22.78" rx="1.03"/>
<path fill="#a90403" d="
  M 937.69 234.47
  C 942.25 234.51 943.08 230.49 943.02 226.69
  Q 942.93 221.21 942.87 216.15
  A 1.38 1.38 0.0 0 1 944.24 214.76
  L 945.09 214.76
  Q 947.01 214.75 947.01 216.66
  L 946.92 237.61
  A 0.67 0.65 -13.0 0 1 946.54 238.20
  Q 945.95 238.47 945.43 238.06
  C 944.28 237.13 942.87 236.37 941.44 237.24
  C 939.05 238.68 936.72 239.58 934.11 237.88
  Q 930.27 235.37 930.10 230.42
  Q 929.87 223.91 930.01 216.48
  Q 930.04 214.73 931.78 214.74
  L 932.50 214.75
  Q 934.32 214.75 934.31 216.58
  Q 934.26 223.24 934.26 229.97
  C 934.26 232.01 935.32 234.45 937.69 234.47
  Z"
/>
<rect fill="#a90403" x="-1.85" y="-11.56" transform="translate(494.84,226.61) rotate(0.3)" width="3.70" height="23.12" rx="1.30"/>
<ellipse fill="#ffffff" cx="0.00" cy="0.00" transform="translate(821.33,226.37) rotate(89.9)" rx="8.29" ry="5.60"/>
<ellipse fill="#ffffff" cx="0.00" cy="0.00" transform="translate(634.68,226.17) rotate(90.0)" rx="8.00" ry="5.14"/>
<path fill="#ffffff" d="
  M 92.21 221.99
  Q 75.75 236.75 59.69 250.94
  Q 58.34 252.14 57.32 253.70
  A 0.85 0.85 0.0 0 0 58.08 255.01
  C 60.82 254.86 63.58 254.51 66.32 254.51
  Q 79.06 254.53 91.45 254.42
  L 91.24 284.56
  Q 91.23 286.05 89.75 286.05
  L 35.55 285.98
  Q 33.87 285.98 33.87 284.30
  L 33.79 223.29
  Q 33.79 222.11 34.97 222.11
  Q 60.26 222.15 82.14 221.89
  Q 84.35 221.86 87.21 221.68
  Q 89.79 221.52 92.21 221.99
  Z"
/>
<path fill="#ffffff" d="
  M 274.26 221.72
  L 301.88 221.99
  A 0.99 0.99 0.0 0 1 302.86 222.98
  L 302.79 284.51
  A 1.55 1.54 90.0 0 1 301.25 286.06
  L 246.56 286.07
  A 1.13 1.13 0.0 0 1 245.43 284.96
  L 244.93 254.76
  L 273.03 254.66
  Q 274.40 254.66 274.40 253.28
  L 274.26 221.72
  Z"
/>
<path fill="#ffffff" d="
  M 113.66 221.94
  L 160.94 222.00
  Q 161.73 222.00 161.74 222.80
  L 161.91 240.38
  L 93.47 240.62
  A 0.69 0.69 0.0 0 1 92.88 239.57
  Q 93.64 238.32 94.81 237.31
  Q 103.27 229.99 111.44 222.41
  Q 112.39 221.53 113.66 221.94
  Z"
/>
<path fill="#ffffff" d="
  M 260.00 221.78
  Q 260.96 221.44 261.10 221.60
  A 2.19 2.11 -66.0 0 1 261.62 223.04
  Q 261.57 231.60 261.61 239.73
  A 0.69 0.69 0.0 0 1 260.91 240.42
  L 245.11 240.19
  L 245.28 223.56
  Q 245.29 221.99 246.86 221.97
  L 260.00 221.78
  Z"
/>
<path fill="#ffffff" d="
  M 232.64 240.34
  L 174.56 240.31
  L 174.77 223.05
  A 1.05 1.04 -89.7 0 1 175.81 222.01
  L 231.26 221.98
  Q 232.55 221.98 232.56 223.28
  L 232.64 240.34
  Z"
/>
<path fill="#ffffff" d="
  M 708.12 230.61
  A 1.02 1.02 0.0 0 1 707.89 232.03
  L 706.42 233.09
  A 5.41 4.93 -35.8 0 1 699.15 232.26
  L 698.63 231.53
  A 5.41 4.93 -35.8 0 1 700.13 224.36
  L 701.60 223.30
  A 1.02 1.02 0.0 0 1 703.02 223.53
  L 708.12 230.61
  Z"
/>
<path fill="#ffffff" d="
  M 457.23 229.39
  C 459.09 228.05 462.72 227.58 464.92 227.19
  A 0.68 0.67 -4.7 0 1 465.71 227.85
  Q 465.70 233.87 460.28 234.78
  C 457.17 235.30 454.29 231.48 457.23 229.39
  Z"
/>
<path fill="#ffffff" d="
  M 1037.05 227.25
  A 1.25 1.25 0.0 0 1 1038.63 228.05
  L 1038.69 228.22
  A 4.92 4.75 -18.2 0 1 1035.50 234.27
  L 1035.23 234.36
  A 4.92 4.75 -18.2 0 1 1029.07 231.38
  L 1029.02 231.21
  A 1.25 1.25 0.0 0 1 1029.82 229.63
  L 1037.05 227.25
  Z"
/>
<path fill="#ffffff" d="
  M 161.99 255.30
  L 161.78 284.86
  A 1.23 1.22 -89.8 0 1 160.56 286.08
  L 105.78 286.04
  A 1.49 1.49 0.0 0 1 104.29 284.56
  L 103.98 254.52
  Q 132.83 254.51 161.75 254.44
  Q 162.80 254.44 161.99 255.30
  Z"
/>
<path fill="#ffffff" d="
  M 232.55 254.42
  L 232.10 285.36
  A 0.69 0.69 0.0 0 1 231.41 286.04
  L 176.39 286.11
  Q 174.91 286.11 174.88 284.63
  L 174.45 254.60
  L 232.55 254.42
  Z"
/>
<path fill="#c60000" d="
  M 492.42 267.42
  A 0.52 0.52 0.0 0 1 492.92 267.96
  L 492.89 268.42
  A 2.88 0.93 -87.2 0 1 491.83 271.25
  L 490.89 271.20
  A 2.88 0.93 -87.2 0 1 490.10 268.28
  L 490.12 267.82
  A 0.52 0.52 0.0 0 1 490.67 267.33
  L 492.42 267.42
  Z"
/>
<path fill="#c60000" d="
  M 614.24 274.64
  Q 616.00 274.96 615.77 276.62
  Q 615.70 277.17 615.19 277.40
  Q 613.05 278.38 613.05 280.57
  Q 613.04 284.80 612.99 288.75
  C 612.97 291.05 615.13 290.78 615.75 292.40
  Q 616.09 293.27 615.59 294.00
  Q 615.33 294.40 614.85 294.44
  C 610.95 294.79 609.62 292.30 609.70 288.91
  Q 609.80 284.44 609.71 280.30
  C 609.68 278.89 608.90 277.69 607.81 276.84
  A 0.57 0.57 0.0 0 1 607.72 276.03
  Q 609.43 273.92 609.87 270.92
  A 2.85 2.83 -8.5 0 1 611.48 268.76
  Q 611.63 268.69 611.80 268.62
  Q 613.09 268.06 613.05 269.46
  Q 612.99 271.49 613.39 273.79
  A 1.05 1.03 89.5 0 0 614.24 274.64
  Z"
/>
<path fill="#c60000" d="
  M 558.61 285.15
  Q 557.64 285.11 557.80 286.06
  Q 558.63 291.02 562.95 291.29
  C 565.48 291.44 567.30 289.29 569.49 288.20
  A 0.82 0.82 0.0 0 1 570.67 288.95
  Q 570.66 290.58 569.26 291.92
  C 566.45 294.62 561.88 295.49 558.55 293.07
  Q 553.20 289.17 554.59 281.51
  C 555.52 276.38 561.16 272.25 566.22 274.87
  Q 571.12 277.40 571.42 283.50
  A 1.43 1.43 0.0 0 1 570.10 285.00
  Q 564.61 285.43 558.61 285.15
  Z
  M 562.05 277.19
  A 1.13 1.13 0.0 0 0 561.08 277.48
  L 558.26 280.14
  A 1.13 1.13 0.0 0 0 559.06 282.09
  L 566.58 281.97
  A 1.13 1.13 0.0 0 0 567.35 280.03
  L 565.20 277.95
  A 1.13 1.13 0.0 0 0 564.61 277.65
  L 562.05 277.19
  Z"
/>
<path fill="#c60000" d="
  M 419.65 280.58
  Q 417.56 286.49 416.79 292.35
  C 416.58 293.98 414.74 294.35 413.44 293.88
  A 1.16 1.16 0.0 0 1 412.76 293.24
  Q 412.14 291.81 411.63 290.20
  Q 409.14 282.22 407.72 275.90
  Q 407.48 274.86 408.46 274.42
  Q 408.74 274.29 409.03 274.37
  Q 410.99 274.85 411.54 277.20
  Q 412.77 282.49 413.74 287.04
  Q 414.36 289.97 415.22 287.10
  Q 416.77 281.94 417.62 276.08
  Q 417.77 275.02 418.80 274.74
  Q 421.39 274.03 421.89 276.57
  Q 422.94 281.86 424.39 287.89
  A 0.35 0.35 0.0 0 0 425.03 288.00
  Q 425.52 287.23 425.76 286.37
  Q 427.09 281.46 428.24 276.34
  Q 428.63 274.62 430.39 274.52
  L 430.77 274.50
  Q 432.29 274.41 431.89 275.88
  L 427.32 292.53
  A 2.06 2.04 86.8 0 1 426.14 293.87
  C 424.86 294.41 423.20 293.91 422.86 292.43
  Q 421.52 286.56 420.12 280.61
  Q 419.93 279.80 419.65 280.58
  Z"
/>
<path fill="#c60000" d="
  M 515.55 281.00
  C 515.55 279.09 513.94 277.43 511.71 277.45
  C 506.49 277.50 507.70 288.37 507.82 292.68
  Q 507.85 293.74 506.80 293.75
  L 505.53 293.75
  Q 504.56 293.76 504.55 292.78
  L 504.50 275.23
  Q 504.50 274.68 505.02 274.51
  Q 505.50 274.35 505.87 274.67
  C 507.97 276.48 509.11 275.42 511.22 274.64
  C 516.83 272.57 519.13 277.70 518.97 282.20
  Q 518.78 287.50 518.93 292.42
  Q 518.97 293.60 517.86 294.02
  Q 517.02 294.34 516.19 293.79
  A 1.38 1.37 17.1 0 1 515.58 292.65
  Q 515.54 286.92 515.55 281.00
  Z"
/>
<path fill="#c60000" d="
  M 538.13 288.73
  Q 539.91 283.43 541.57 277.19
  Q 542.11 275.15 543.84 274.38
  Q 544.15 274.24 544.48 274.31
  Q 545.93 274.59 545.53 276.00
  Q 543.33 283.86 540.81 291.52
  C 539.88 294.33 536.74 295.57 535.48 292.19
  Q 532.59 284.39 529.85 276.26
  A 1.38 1.38 0.0 0 1 530.83 274.48
  Q 531.64 274.29 532.60 274.80
  A 1.97 1.95 6.2 0 1 533.55 275.97
  L 537.40 288.72
  Q 537.75 289.87 538.13 288.73
  Z"
/>
<path fill="#c60000" d="
  M 590.50 277.38
  C 584.93 276.47 586.45 289.05 586.66 292.53
  A 1.38 1.37 -1.0 0 1 585.25 293.98
  L 584.37 293.96
  Q 582.82 293.92 582.82 292.37
  L 582.88 275.24
  A 0.61 0.61 0.0 0 1 583.64 274.65
  L 586.98 275.50
  Q 587.53 275.64 588.04 275.37
  C 593.78 272.28 597.50 275.92 597.34 281.62
  Q 597.17 287.36 597.27 292.34
  Q 597.30 293.89 595.75 293.96
  L 595.36 293.97
  Q 594.04 294.03 594.03 292.71
  Q 593.99 287.92 594.06 282.51
  C 594.09 280.01 593.35 277.85 590.50 277.38
  Z"
/>
<path fill="#c60000" d="
  M 648.70 290.20
  C 650.49 291.88 653.82 291.68 655.12 289.39
  Q 655.84 288.12 656.73 287.03
  A 1.15 1.15 0.0 0 1 658.77 287.63
  Q 659.05 289.98 657.38 291.66
  C 652.95 296.12 647.01 294.79 644.36 289.45
  C 642.24 285.16 643.11 278.17 647.43 275.42
  C 651.03 273.13 655.79 274.04 657.95 277.78
  Q 658.74 279.15 658.43 280.70
  A 0.92 0.91 27.6 0 1 656.89 281.18
  C 655.13 279.46 652.46 276.09 649.78 277.93
  C 646.48 280.20 646.26 283.40 647.01 287.06
  Q 647.40 288.98 648.70 290.20
  Z"
/>
<path fill="#c60000" d="
  M 689.18 288.18
  Q 690.84 292.64 695.35 290.86
  A 2.49 2.48 1.9 0 0 696.68 289.62
  Q 697.39 288.14 698.59 286.99
  A 1.27 1.27 0.0 0 1 700.74 287.97
  C 700.61 291.16 697.40 293.71 694.56 294.35
  C 690.93 295.16 687.58 292.37 686.08 289.30
  C 684.34 285.75 684.76 279.31 687.86 276.52
  Q 692.07 272.74 696.90 275.04
  Q 700.14 276.59 700.36 280.12
  A 1.12 1.12 0.0 0 1 698.47 281.01
  C 696.53 279.18 693.48 275.43 690.66 278.55
  Q 687.07 282.51 689.18 288.18
  Z"
/>
<path fill="#c60000" d="
  M 718.5219 294.4490
  A 10.16 8.46 89.2 0 1 709.9208 284.4081
  A 10.16 8.46 89.2 0 1 718.2381 274.1310
  A 10.16 8.46 89.2 0 1 726.8392 284.1719
  A 10.16 8.46 89.2 0 1 718.5219 294.4490
  Z
  M 718.4113 291.3897
  A 7.02 5.13 89.5 0 0 723.4798 284.3252
  A 7.02 5.13 89.5 0 0 718.2887 277.3503
  A 7.02 5.13 89.5 0 0 713.2202 284.4148
  A 7.02 5.13 89.5 0 0 718.4113 291.3897
  Z"
/>
<path fill="#c60000" d="
  M 742.10 276.29
  Q 743.49 273.86 746.99 274.25
  C 748.55 274.43 749.46 275.90 750.51 276.89
  A 0.96 0.95 45.7 0 0 751.80 276.91
  C 753.11 275.74 754.14 274.45 756.02 274.23
  C 761.10 273.64 762.77 277.73 762.77 282.19
  Q 762.76 287.16 762.63 292.53
  Q 762.60 293.86 761.27 293.91
  L 760.34 293.95
  Q 758.77 294.02 758.91 292.45
  Q 759.45 286.53 759.07 280.42
  A 3.18 3.17 78.7 0 0 754.88 277.62
  Q 754.61 277.71 754.35 277.83
  Q 751.72 279.05 751.62 281.56
  Q 751.40 286.92 751.64 292.99
  Q 751.67 293.76 750.91 293.75
  L 749.02 293.74
  A 0.84 0.84 0.0 0 1 748.18 292.86
  Q 748.44 286.29 748.13 280.84
  C 747.98 278.21 746.07 276.18 743.47 277.74
  Q 740.73 279.40 740.64 282.04
  Q 740.47 287.24 740.63 292.53
  Q 740.67 294.21 739.00 294.03
  L 738.57 293.99
  Q 737.08 293.83 737.09 292.33
  L 737.29 275.66
  A 1.10 1.10 0.0 0 1 738.68 274.61
  Q 740.41 275.07 741.45 276.35
  Q 741.81 276.79 742.10 276.29
  Z"
/>
<path fill="#c60000" d="
  M 387.89 280.80
  Q 387.74 280.16 387.49 280.77
  Q 385.31 286.03 384.65 291.96
  Q 384.46 293.61 382.82 294.04
  C 381.09 294.49 380.27 292.98 379.84 291.63
  Q 377.18 283.18 375.33 275.77
  A 1.05 1.04 68.3 0 1 375.83 274.61
  Q 376.39 274.30 376.92 274.43
  A 2.94 2.92 -0.1 0 1 379.07 276.56
  Q 380.50 282.20 381.84 288.24
  Q 382.09 289.38 382.46 288.27
  Q 384.55 281.98 385.43 275.88
  A 1.29 1.28 -5.7 0 1 386.28 274.85
  Q 389.11 273.85 389.66 276.66
  Q 390.83 282.56 392.02 288.18
  A 0.31 0.30 -28.4 0 0 392.54 288.33
  Q 392.98 287.88 393.19 287.28
  Q 394.97 282.05 395.92 276.20
  Q 396.18 274.61 397.79 274.51
  L 398.44 274.47
  Q 400.05 274.38 399.62 275.93
  Q 397.54 283.37 395.42 291.17
  Q 395.08 292.41 394.36 293.34
  A 2.11 2.11 0.0 0 1 390.64 292.52
  L 387.89 280.80
  Z"
/>
<path fill="#c60000" d="
  M 448.47 287.73
  Q 449.53 282.86 450.34 277.43
  Q 450.57 275.88 451.60 274.87
  A 1.63 1.62 50.5 0 1 454.08 275.11
  Q 455.01 276.46 455.28 278.13
  Q 456.02 282.85 457.13 287.06
  Q 457.60 288.88 458.22 287.11
  Q 459.98 282.13 461.07 276.55
  Q 461.42 274.76 463.23 274.59
  L 463.83 274.54
  A 1.06 1.06 0.0 0 1 464.94 275.89
  L 460.20 292.56
  A 2.24 2.24 0.0 0 1 457.99 294.19
  Q 456.19 294.15 455.78 292.30
  Q 454.61 287.02 453.10 281.61
  Q 453.01 281.27 452.70 281.12
  A 0.37 0.37 0.0 0 0 452.18 281.37
  Q 450.85 287.00 449.70 292.23
  Q 449.28 294.09 447.34 294.15
  A 1.97 1.95 -8.9 0 1 445.39 292.74
  L 440.52 276.15
  Q 439.98 274.34 441.87 274.49
  L 442.48 274.54
  Q 444.01 274.66 444.32 276.16
  C 445.11 280.01 445.82 284.38 447.79 287.83
  Q 448.26 288.67 448.47 287.73
  Z"
/>
<path fill="#c60000" d="
  M 492.49 275.09
  A 0.57 0.57 0.0 0 1 493.06 275.65
  L 493.06 275.83
  A 17.93 0.68 89.8 0 1 492.44 293.77
  L 490.78 293.77
  A 17.93 0.68 89.8 0 1 490.04 275.85
  L 490.04 275.67
  A 0.57 0.57 0.0 0 1 490.61 275.09
  L 492.49 275.09
  Z"
/>
<path fill="#ffffff" d="
  M 562.05 277.19
  L 564.61 277.65
  A 1.13 1.13 0.0 0 1 565.20 277.95
  L 567.35 280.03
  A 1.13 1.13 0.0 0 1 566.58 281.97
  L 559.06 282.09
  A 1.13 1.13 0.0 0 1 558.26 280.14
  L 561.08 277.48
  A 1.13 1.13 0.0 0 1 562.05 277.19
  Z"
/>
<ellipse fill="#ffffff" cx="0.00" cy="0.00" transform="translate(718.35,284.37) rotate(89.5)" rx="7.02" ry="5.13"/>
<rect fill="#c60000" x="-4.77" y="-1.69" transform="translate(629.51,284.30) rotate(0.3)" width="9.54" height="3.38" rx="1.19"/>
<ellipse fill="#c60000" cx="0.00" cy="0.00" transform="translate(475.37,292.29) rotate(125.3)" rx="1.81" ry="1.68"/>
<ellipse fill="#c60000" cx="0.00" cy="0.00" transform="translate(671.79,292.23) rotate(-11.5)" rx="2.05" ry="1.73"/>
</svg>
